<svg xmlns="http://www.w3.org/2000/svg" xmlns:xlink="http://www.w3.org/1999/xlink" width="716" zoomAndPan="magnify" viewBox="0 0 537 341.249999" height="455" preserveAspectRatio="xMidYMid meet" version="1.0"><defs><clipPath id="3293cf8b18"><path d="M 370.863281 129.8125 L 399.976562 129.8125 L 399.976562 183.136719 L 370.863281 183.136719 Z M 370.863281 129.8125 " clip-rule="nonzero"/></clipPath><clipPath id="a8cb693b80"><path d="M 1 7 L 535.664062 7 L 535.664062 340.5 L 1 340.5 Z M 1 7 " clip-rule="nonzero"/></clipPath><clipPath id="c06dc16885"><path d="M 33 140 L 535.664062 140 L 535.664062 340.5 L 33 340.5 Z M 33 140 " clip-rule="nonzero"/></clipPath></defs><g clip-path="url(#3293cf8b18)"><path fill="#459c00" d="M 370.863281 129.8125 L 399.976562 129.8125 L 399.976562 183.148438 L 370.863281 183.148438 Z M 370.863281 129.8125 " fill-opacity="1" fill-rule="nonzero"/></g><g clip-path="url(#a8cb693b80)"><path fill="#459c00" d="M 10.386719 342.71875 L 1009.613281 342.71875 C 1015.15625 321.636719 1007.433594 298.53125 988.089844 286.523438 C 966.6875 273.246094 942.992188 280.851562 925.761719 297.160156 C 919.164062 303.394531 913.566406 310.632812 908.496094 318.140625 C 906.140625 321.636719 903.035156 332.472656 901.375 328.582031 C 893.832031 310.976562 930.277344 241.578125 854.65625 236.640625 C 830.402344 235.050781 810.972656 248.9375 798.085938 268.355469 C 794.859375 273.222656 791.964844 278.308594 789.5 283.589844 C 787.796875 287.257812 784.917969 298.871094 784.917969 294.8125 C 784.917969 233.925781 766.539062 173.597656 705.03125 148.019531 C 654.175781 126.84375 604.042969 151.515625 576.285156 196.316406 C 566.988281 211.332031 560.265625 228.007812 555.703125 245.027344 C 554.878906 248.132812 554.160156 251.703125 553.574219 255.148438 C 552.453125 225.660156 521.996094 194.875 493.960938 197 C 476.796875 198.320312 466.136719 212.917969 460.699219 227.957031 C 460.363281 228.886719 460.035156 229.914062 459.722656 231.015625 C 459.019531 215.316406 454.761719 196.289062 453.777344 188.320312 C 444.945312 117.085938 407.15625 19.691406 324.246094 8.613281 C 260.960938 0.175781 205.308594 62.582031 193.449219 119.605469 C 192.90625 122.222656 192.292969 130.4375 192.039062 140.710938 C 187.242188 133.152344 181.605469 126.257812 175.699219 120.386719 C 143.78125 88.722656 71.941406 75.492188 41.882812 116.867188 C 24.535156 140.710938 20.96875 175.503906 34.066406 201.988281 C 35.214844 204.289062 39.515625 211.648438 44.5 217.6875 C 35.875 218.078125 27.371094 222.652344 21.285156 228.449219 C 2.128906 246.664062 0.417969 280.921875 1.589844 305.546875 C 2.226562 318.628906 5.332031 331.054688 10.386719 342.71875 Z M 10.386719 342.71875 " fill-opacity="1" fill-rule="nonzero"/></g><g clip-path="url(#c06dc16885)"><path fill="#228600" d="M 33.527344 342.71875 L 787.90625 342.71875 C 787.917969 342.421875 787.917969 342.226562 787.898438 342.082031 C 786.355469 330.367188 781.832031 319.09375 777.214844 308.3125 C 755.585938 257.816406 712.621094 194.480469 649.496094 206 C 612.957031 212.648438 583 242.484375 565.835938 274.003906 C 559.546875 285.546875 554.867188 297.96875 551.53125 310.660156 C 550.949219 312.882812 550.421875 315.109375 549.941406 317.359375 C 550.761719 297.0625 540.804688 271.191406 524.066406 263.734375 C 508.582031 256.835938 490.464844 264.320312 480.546875 276.960938 C 476.871094 281.65625 474.933594 286.769531 473.546875 292.488281 C 472.921875 295.058594 472.609375 302.441406 471.433594 300.09375 C 469.078125 295.375 470.515625 287.429688 467.628906 281.804688 C 455.328125 257.792969 427.65625 226.882812 398.640625 226.171875 C 363.582031 225.292969 339.277344 261.484375 328.921875 290.484375 C 327.167969 295.398438 325.640625 300.414062 324.242188 305.449219 C 319.4375 265.761719 310.0625 228.398438 292.949219 191.179688 C 283.574219 170.8125 268.167969 139.558594 241.402344 140.929688 C 225.714844 141.710938 212.222656 148.019531 200.828125 157.628906 C 197.820312 160.171875 194.960938 162.960938 192.242188 165.921875 C 170.222656 189.957031 157.6875 226.6875 153.699219 255.050781 C 147.957031 242.753906 138.164062 233.09375 123.035156 232.921875 C 97.953125 232.679688 74.628906 252.242188 70.160156 276.914062 C 68.492188 286.15625 69.875 295.496094 73.960938 303.910156 C 74.566406 305.15625 75.226562 306.378906 75.953125 307.578125 C 63.925781 302.171875 42.105469 316.183594 37.683594 326.921875 C 35.582031 332.03125 34.238281 337.335938 33.527344 342.71875 Z M 792.671875 342.71875 L 882.421875 342.71875 C 882.75 341.640625 882.96875 340.90625 883.027344 340.636719 C 886.78125 322.25 886.234375 294.472656 862.566406 290.558594 C 839.390625 286.71875 816.957031 304.960938 805.707031 323.421875 C 803.519531 326.992188 797.097656 335.355469 792.671875 342.71875 Z M 970.597656 342.71875 C 973.964844 327.484375 972.480469 312.417969 956.242188 311.390625 C 936.992188 310.195312 915.8125 329.269531 900.699219 342.71875 Z M 318.058594 331.933594 C 317.824219 334.207031 317.613281 337.019531 317.332031 335.625 C 317.058594 334.257812 317.390625 333.035156 318.058594 331.933594 Z M 318.058594 331.933594 " fill-opacity="1" fill-rule="nonzero"/></g></svg>