<svg xmlns="http://www.w3.org/2000/svg" xmlns:xlink="http://www.w3.org/1999/xlink" width="716" zoomAndPan="magnify" viewBox="0 0 537 341.249999" height="455" preserveAspectRatio="xMidYMid meet" version="1.0"><defs><clipPath id="1114fa662e"><path d="M 0.589844 7 L 535.664062 7 L 535.664062 340.5 L 0.589844 340.5 Z M 0.589844 7 " clip-rule="nonzero"/></clipPath><clipPath id="12aea4d1fc"><path d="M 0.589844 140 L 504 140 L 504 340.5 L 0.589844 340.5 Z M 0.589844 140 " clip-rule="nonzero"/></clipPath><clipPath id="617de21a98"><path d="M 239.152344 100.605469 L 268.265625 100.605469 L 268.265625 153.925781 L 239.152344 153.925781 Z M 239.152344 100.605469 " clip-rule="nonzero"/></clipPath></defs><g clip-path="url(#1114fa662e)"><path fill="#459c00" d="M 526.144531 342.71875 L -473.082031 342.71875 C -478.621094 321.636719 -470.902344 298.53125 -451.554688 286.523438 C -430.15625 273.246094 -406.460938 280.851562 -389.226562 297.160156 C -382.632812 303.394531 -377.035156 310.632812 -371.964844 318.140625 C -369.605469 321.636719 -366.503906 332.472656 -364.84375 328.582031 C -357.300781 310.976562 -393.746094 241.578125 -318.125 236.640625 C -293.871094 235.050781 -274.441406 248.9375 -261.550781 268.355469 C -258.328125 273.222656 -255.433594 278.308594 -252.96875 283.589844 C -251.261719 287.257812 -248.382812 298.871094 -248.382812 294.8125 C -248.382812 233.925781 -230.007812 173.597656 -168.5 148.019531 C -117.644531 126.84375 -67.511719 151.515625 -39.753906 196.316406 C -30.457031 211.332031 -23.734375 228.007812 -19.171875 245.027344 C -18.34375 248.132812 -17.628906 251.703125 -17.039062 255.148438 C -15.921875 225.660156 14.535156 194.875 42.570312 197 C 59.734375 198.320312 70.398438 212.917969 75.832031 227.957031 C 76.167969 228.886719 76.496094 229.914062 76.8125 231.015625 C 77.515625 215.316406 81.769531 196.289062 82.757812 188.320312 C 91.585938 117.085938 129.375 19.691406 212.285156 8.613281 C 275.570312 0.175781 331.222656 62.582031 343.082031 119.605469 C 343.628906 122.222656 344.238281 130.4375 344.496094 140.710938 C 349.292969 133.152344 354.925781 126.257812 360.835938 120.386719 C 392.75 88.722656 464.589844 75.492188 494.648438 116.867188 C 511.996094 140.710938 515.5625 175.503906 502.46875 201.988281 C 501.320312 204.289062 497.019531 211.648438 492.03125 217.6875 C 500.660156 218.078125 509.160156 222.652344 515.246094 228.449219 C 534.402344 246.664062 536.113281 280.921875 534.941406 305.546875 C 534.304688 318.628906 531.203125 331.054688 526.144531 342.71875 Z M 526.144531 342.71875 " fill-opacity="1" fill-rule="nonzero"/></g><g clip-path="url(#12aea4d1fc)"><path fill="#228600" d="M 503.003906 342.71875 L -251.375 342.71875 C -251.386719 342.421875 -251.386719 342.226562 -251.367188 342.082031 C -249.824219 330.367188 -245.296875 319.09375 -240.683594 308.3125 C -219.054688 257.816406 -176.085938 194.480469 -112.964844 206 C -76.421875 212.648438 -46.46875 242.484375 -29.304688 274.003906 C -23.015625 285.546875 -18.335938 297.96875 -14.996094 310.660156 C -14.414062 312.882812 -13.886719 315.109375 -13.410156 317.359375 C -14.226562 297.0625 -4.273438 271.191406 12.464844 263.734375 C 27.953125 256.835938 46.066406 264.320312 55.984375 276.960938 C 59.660156 281.65625 61.601562 286.769531 62.984375 292.488281 C 63.609375 295.058594 63.921875 302.441406 65.097656 300.09375 C 67.453125 295.375 66.019531 287.429688 68.902344 281.804688 C 81.203125 257.792969 108.875 226.882812 137.894531 226.171875 C 172.949219 225.292969 197.253906 261.484375 207.609375 290.484375 C 209.363281 295.398438 210.890625 300.414062 212.289062 305.449219 C 217.09375 265.761719 226.46875 228.398438 243.585938 191.179688 C 252.957031 170.8125 268.367188 139.558594 295.132812 140.929688 C 310.820312 141.710938 324.3125 148.019531 335.707031 157.628906 C 338.714844 160.171875 341.570312 162.960938 344.289062 165.921875 C 366.308594 189.957031 378.84375 226.6875 382.832031 255.050781 C 388.578125 242.753906 398.367188 233.09375 413.496094 232.921875 C 438.578125 232.679688 461.902344 252.242188 466.371094 276.914062 C 468.039062 286.15625 466.65625 295.496094 462.570312 303.910156 C 461.964844 305.15625 461.304688 306.378906 460.582031 307.578125 C 472.609375 302.171875 494.429688 316.183594 498.851562 326.921875 C 500.953125 332.03125 502.296875 337.335938 503.003906 342.71875 Z M -256.140625 342.71875 L -345.886719 342.71875 C -346.21875 341.640625 -346.4375 340.90625 -346.496094 340.636719 C -350.246094 322.25 -349.703125 294.472656 -326.03125 290.558594 C -302.855469 286.71875 -280.425781 304.960938 -269.171875 323.421875 C -266.988281 326.992188 -260.566406 335.355469 -256.140625 342.71875 Z M -434.066406 342.71875 C -437.433594 327.484375 -435.949219 312.417969 -419.710938 311.390625 C -400.457031 310.195312 -379.28125 329.269531 -364.167969 342.71875 Z M 218.476562 331.933594 C 218.707031 334.207031 218.917969 337.019531 219.199219 335.625 C 219.472656 334.257812 219.140625 333.035156 218.476562 331.933594 Z M 218.476562 331.933594 " fill-opacity="1" fill-rule="nonzero"/></g><g clip-path="url(#617de21a98)"><path fill="#459c00" d="M 239.152344 100.605469 L 268.265625 100.605469 L 268.265625 153.941406 L 239.152344 153.941406 Z M 239.152344 100.605469 " fill-opacity="1" fill-rule="nonzero"/></g></svg>