<svg xmlns="http://www.w3.org/2000/svg" xmlns:xlink="http://www.w3.org/1999/xlink" width="500" zoomAndPan="magnify" viewBox="0 0 375 374.999991" height="500" preserveAspectRatio="xMidYMid meet" version="1.0"><defs><g/><clipPath id="8888e1e04d"><path d="M 0 1.039062 L 375 1.039062 L 375 373.960938 L 0 373.960938 Z M 0 1.039062 " clip-rule="nonzero"/></clipPath><clipPath id="52159a8064"><path d="M 187.5 1.039062 C 83.945312 1.039062 0 84.519531 0 187.5 C 0 290.480469 83.945312 373.960938 187.5 373.960938 C 291.054688 373.960938 375 290.480469 375 187.5 C 375 84.519531 291.054688 1.039062 187.5 1.039062 Z M 187.5 1.039062 " clip-rule="nonzero"/></clipPath><clipPath id="1435269e86"><path d="M 23.8125 206.269531 L 28.800781 206.269531 L 28.800781 211.257812 L 23.8125 211.257812 Z M 23.8125 206.269531 " clip-rule="nonzero"/></clipPath><clipPath id="64cc8e5efe"><path d="M 26.308594 206.269531 C 24.929688 206.269531 23.8125 207.386719 23.8125 208.761719 C 23.8125 210.140625 24.929688 211.257812 26.308594 211.257812 C 27.683594 211.257812 28.800781 210.140625 28.800781 208.761719 C 28.800781 207.386719 27.683594 206.269531 26.308594 206.269531 Z M 26.308594 206.269531 " clip-rule="nonzero"/></clipPath><clipPath id="5395323f3b"><path d="M 334 206.269531 L 338.992188 206.269531 L 338.992188 211.257812 L 334 211.257812 Z M 334 206.269531 " clip-rule="nonzero"/></clipPath><clipPath id="18112c40fd"><path d="M 336.496094 206.269531 C 335.117188 206.269531 334 207.386719 334 208.761719 C 334 210.140625 335.117188 211.257812 336.496094 211.257812 C 337.875 211.257812 338.992188 210.140625 338.992188 208.761719 C 338.992188 207.386719 337.875 206.269531 336.496094 206.269531 Z M 336.496094 206.269531 " clip-rule="nonzero"/></clipPath><clipPath id="e3927d3a7f"><path d="M 58.191406 59.230469 L 314.734375 59.230469 L 314.734375 315.769531 L 58.191406 315.769531 Z M 58.191406 59.230469 " clip-rule="nonzero"/></clipPath><clipPath id="aa1e9e0364"><path d="M 186.460938 59.230469 C 115.621094 59.230469 58.191406 116.65625 58.191406 187.5 C 58.191406 258.34375 115.621094 315.769531 186.460938 315.769531 C 257.304688 315.769531 314.734375 258.34375 314.734375 187.5 C 314.734375 116.65625 257.304688 59.230469 186.460938 59.230469 Z M 186.460938 59.230469 " clip-rule="nonzero"/></clipPath></defs><g clip-path="url(#8888e1e04d)"><g clip-path="url(#52159a8064)"><path fill="#ff3131" d="M 0 1.039062 L 374.382812 1.039062 L 374.382812 373.960938 L 0 373.960938 Z M 0 1.039062 " fill-opacity="1" fill-rule="nonzero"/></g></g><g clip-path="url(#1435269e86)"><g clip-path="url(#64cc8e5efe)"><path fill="#ffffff" d="M 23.8125 206.269531 L 28.800781 206.269531 L 28.800781 211.257812 L 23.8125 211.257812 Z M 23.8125 206.269531 " fill-opacity="1" fill-rule="nonzero"/></g></g><g clip-path="url(#5395323f3b)"><g clip-path="url(#18112c40fd)"><path fill="#ffffff" d="M 334 206.269531 L 338.992188 206.269531 L 338.992188 211.257812 L 334 211.257812 Z M 334 206.269531 " fill-opacity="1" fill-rule="nonzero"/></g></g><g clip-path="url(#e3927d3a7f)"><g clip-path="url(#aa1e9e0364)"><path fill="#f2ebd7" d="M 58.191406 59.230469 L 314.734375 59.230469 L 314.734375 315.769531 L 58.191406 315.769531 Z M 58.191406 59.230469 " fill-opacity="1" fill-rule="nonzero"/></g></g><path fill="#ff3131" d="M 176.292969 125.597656 C 176.0625 125.648438 175.8125 125.671875 175.546875 125.632812 C 170.113281 124.851562 164.054688 125.328125 158.304688 126.230469 C 158.726562 126.3125 159.152344 126.386719 159.578125 126.480469 C 165.101562 127.671875 170.175781 131.660156 175.6875 132.292969 C 175.949219 130.136719 176.164062 127.882812 176.292969 125.597656 Z M 215.738281 127.457031 C 216.402344 127.308594 217.074219 127.144531 217.738281 126.96875 C 208.828125 124.777344 199.492188 125.078125 190.347656 125.191406 C 191.289062 127.769531 192.019531 130.386719 192.609375 133.105469 C 200.21875 132.65625 208.324219 129.167969 215.738281 127.457031 Z M 247.585938 125.347656 C 251.601562 125.246094 255.535156 125.257812 259.636719 125.265625 C 255.273438 123.9375 250.003906 124.125 245.902344 124.226562 C 239.019531 124.390625 232.6875 126.605469 226.03125 128.175781 C 219.753906 129.648438 213.421875 131.007812 207.171875 132.617188 C 207.007812 132.691406 206.851562 132.753906 206.695312 132.832031 C 206.210938 133.054688 205.722656 133.28125 205.191406 133.539062 C 204.132812 133.988281 202.980469 134.492188 201.757812 135.023438 C 200.539062 135.488281 199.453125 136.082031 198.433594 136.558594 C 197.429688 137.046875 196.625 137.574219 195.839844 137.953125 C 194.382812 138.925781 193.390625 139.449219 193.203125 139.226562 C 193.015625 139.007812 193.628906 138.078125 194.875 136.808594 C 195.316406 136.445312 195.859375 136.019531 196.4375 135.585938 C 194.953125 135.886719 193.453125 136.113281 191.925781 136.175781 C 191.644531 136.175781 191.402344 136.113281 191.199219 136.019531 C 191.164062 137.609375 190.835938 139.082031 190.089844 140.167969 C 189.488281 141.074219 188.707031 141.523438 188.117188 141.664062 C 187.566406 141.800781 187.273438 141.699219 187.222656 141.59375 C 187.148438 141.4375 187.429688 141.238281 187.765625 140.910156 C 188.082031 140.621094 188.519531 140.140625 188.789062 139.4375 C 189.375 138.054688 189.289062 135.664062 188.851562 133.054688 C 188.507812 131.210938 188.117188 129.472656 187.765625 127.984375 C 186.558594 124.851562 185.238281 121.757812 184.585938 118.488281 C 183.558594 113.316406 184.773438 108.6875 184.917969 103.511719 C 183.496094 102.105469 178.328125 107.246094 178.066406 108.824219 C 178.101562 108.910156 178.140625 109 178.164062 109.101562 C 178.203125 109.238281 178.253906 109.386719 178.292969 109.539062 L 178.339844 109.539062 L 178.402344 109.550781 L 178.453125 109.539062 C 178.441406 109.539062 178.417969 109.539062 178.390625 109.539062 C 178.402344 109.539062 178.429688 109.527344 178.453125 109.527344 C 178.878906 109.402344 179.5 108.988281 179.964844 108.585938 C 180.453125 108.167969 180.882812 107.753906 181.222656 107.402344 C 181.574219 107.046875 181.835938 106.71875 182.011719 106.558594 C 182.21875 106.394531 182.34375 106.15625 182.492188 106.195312 C 182.632812 106.230469 182.808594 106.34375 182.820312 106.746094 C 182.832031 107.164062 182.730469 107.652344 182.492188 108.207031 C 182.242188 108.761719 181.875 109.375 181.347656 109.964844 C 180.796875 110.558594 180.164062 111.199219 179.011719 111.578125 C 178.894531 111.605469 178.769531 111.628906 178.640625 111.640625 C 179.75 118.082031 179.523438 125.128906 178.78125 131.636719 C 178.78125 132.742188 178.769531 133.941406 178.71875 135.199219 C 178.703125 135.535156 178.691406 135.886719 178.679688 136.226562 C 178.691406 136.46875 178.679688 136.832031 178.703125 137.109375 C 178.730469 137.691406 178.816406 138.230469 178.96875 138.683594 C 179.273438 139.578125 179.824219 140.105469 180.558594 140.410156 C 182.011719 140.972656 183.269531 140.9375 183.289062 141.261719 C 183.296875 141.414062 183.035156 141.574219 182.53125 141.738281 C 181.992188 141.875 181.199219 142.03125 180.140625 141.84375 C 179.613281 141.738281 179.011719 141.539062 178.46875 141.113281 C 177.914062 140.683594 177.445312 140.078125 177.15625 139.402344 C 176.855469 138.730469 176.707031 138.003906 176.625 137.285156 C 176.582031 136.910156 176.582031 136.59375 176.5625 136.152344 C 176.582031 135.902344 176.582031 135.636719 176.59375 135.386719 C 176.5625 135.386719 176.542969 135.386719 176.53125 135.386719 C 172.359375 135.179688 169.679688 133.394531 166.007812 131.722656 C 160.359375 129.148438 152.96875 127.683594 146.769531 128.058594 C 140.28125 128.464844 133.984375 130.226562 127.617188 131.433594 C 123.402344 132.242188 119.449219 132.945312 115.539062 134.066406 C 129.300781 133.878906 142.667969 128.339844 156.320312 131.949219 C 159.039062 132.667969 161.84375 133.042969 164.460938 134.089844 C 165.71875 134.59375 166.980469 135.222656 167.925781 136.214844 C 168.625 136.960938 168.851562 137.980469 169.429688 138.792969 C 170.238281 139.929688 170.90625 139.902344 172.191406 140.167969 C 173.46875 140.441406 174.1875 140.835938 174.164062 141.113281 C 174.140625 141.414062 173.308594 141.550781 172.058594 141.664062 C 169.554688 141.917969 167.417969 142.671875 164.953125 143.222656 C 163.066406 143.640625 161.199219 144.21875 159.390625 144.886719 C 155.882812 146.195312 152.21875 147.882812 149.488281 150.488281 C 148.078125 151.832031 146.792969 153.46875 145.6875 155.253906 L 146.21875 154.800781 C 146.632812 154.445312 147.070312 154.082031 147.476562 153.859375 C 151.941406 151.101562 156.308594 149.140625 159.363281 147.792969 C 162.464844 146.398438 164.425781 145.550781 164.574219 145.828125 C 164.699219 146.070312 163.027344 147.367188 160.085938 149.117188 C 157.089844 150.851562 152.957031 152.960938 148.597656 155.667969 C 148.140625 155.910156 147.851562 156.1875 147.550781 156.449219 L 147.082031 156.824219 C 146.945312 156.976562 146.820312 157.144531 146.679688 157.289062 C 146.105469 157.871094 145.773438 158.617188 145.371094 159.28125 L 145.335938 159.332031 L 145.308594 159.40625 C 145.109375 159.84375 144.871094 160.226562 144.695312 160.691406 C 144.519531 161.171875 144.339844 161.648438 144.164062 162.097656 C 143.988281 162.59375 143.824219 163.058594 143.5625 163.535156 C 143.460938 163.734375 143.347656 163.953125 143.230469 164.152344 C 148.472656 160.011719 153.300781 155.648438 159.714844 152.980469 C 164.550781 150.964844 169.179688 148.570312 173.988281 146.535156 C 177.183594 145.164062 180.339844 145.828125 183.675781 144.574219 C 184.054688 144.574219 184.515625 144.449219 185 144.789062 C 190.621094 148.851562 197.039062 149.804688 203.542969 150.472656 C 201.859375 150.042969 200.238281 149.605469 198.746094 149.175781 C 197.011719 148.671875 195.441406 148.105469 194.144531 147.65625 C 191.613281 146.597656 190.117188 145.789062 190.210938 145.515625 C 190.304688 145.238281 191.980469 145.539062 194.625 146.234375 C 195.960938 146.496094 197.492188 146.886719 199.253906 147.273438 C 201 147.679688 202.929688 148.132812 204.953125 148.652344 C 206.964844 149.117188 208.929688 149.78125 210.628906 150.449219 C 211.925781 150.964844 213.121094 151.433594 214.191406 151.859375 C 216.113281 152.234375 218.03125 152.734375 219.878906 153.457031 C 228.007812 156.601562 236.394531 160.125 244.261719 164.316406 C 242.539062 162.769531 240.726562 161.296875 238.84375 159.800781 C 234.449219 156.300781 230.601562 152.910156 224.976562 151.582031 C 220.40625 150.5 215.800781 149.769531 211.367188 148.183594 C 209.355469 147.46875 207.597656 146.445312 205.742188 145.589844 C 205.566406 145.566406 205.367188 145.539062 205.167969 145.503906 C 204.828125 145.425781 204.453125 145.339844 204.058594 145.226562 C 203.695312 145.125 203.320312 145.027344 202.917969 144.898438 C 202.535156 144.761719 202.074219 144.65625 201.609375 144.542969 C 201.371094 144.480469 201.128906 144.417969 200.890625 144.355469 L 200.800781 144.332031 C 200.789062 144.332031 200.789062 144.394531 200.789062 144.394531 L 200.625 144.34375 L 200.261719 144.28125 C 199.277344 144.144531 198.347656 143.980469 197.492188 143.804688 C 196.648438 143.617188 195.828125 143.554688 195.164062 143.402344 C 193.84375 143.140625 193.023438 142.820312 193.035156 142.53125 C 193.046875 142.230469 193.894531 142.019531 195.253906 141.894531 C 195.933594 141.855469 196.710938 141.75 197.621094 141.84375 C 200.335938 142.09375 202.855469 139.765625 204.851562 138.242188 C 207.570312 136.164062 210.289062 133.964844 213.523438 132.78125 C 219.464844 130.589844 225.941406 131.222656 231.804688 129.375 C 237.191406 127.683594 241.824219 125.496094 247.585938 125.347656 Z M 265.71875 217.238281 C 269.769531 201.914062 269.050781 184.777344 263.539062 169.878906 C 263.074219 168.617188 262.574219 167.359375 262.03125 166.125 C 258.835938 158.753906 254.382812 151.996094 248.96875 146.046875 C 246.265625 143.078125 243.332031 140.304688 240.246094 137.710938 C 238.664062 136.382812 236.964844 135.199219 235.390625 133.851562 C 233.734375 132.429688 232.5625 132.28125 230.394531 132.65625 C 224.734375 133.664062 218.082031 133.28125 212.945312 136.363281 C 210.152344 138.042969 207.621094 140.066406 204.980469 141.945312 C 209.371094 143.359375 213.269531 145.984375 217.917969 146.972656 C 222.445312 147.933594 227.589844 148.457031 231.679688 150.800781 C 239.632812 155.367188 247.949219 162.199219 253.171875 169.765625 C 254.164062 171.210938 252.128906 172.582031 250.917969 171.648438 C 245.105469 167.960938 239.082031 165.054688 232.699219 162.476562 C 226.9375 160.152344 221.164062 156.363281 215.132812 154.988281 C 204.550781 152.597656 193.316406 154.246094 183.890625 147.730469 C 178.980469 148.796875 174.628906 149.503906 169.972656 151.820312 C 166.4375 153.59375 162.683594 154.828125 159.136719 156.539062 C 151.855469 160.050781 146.46875 165.925781 139.847656 170.417969 C 138.375 171.414062 136.992188 169.320312 137.976562 168.125 C 138.851562 161.546875 142.050781 152.484375 147.351562 148.34375 C 152.457031 144.367188 159.488281 141.160156 166.007812 140.003906 C 166.585938 136.40625 158.34375 135.613281 156.246094 135.046875 C 149.894531 133.371094 144.871094 133.121094 138.402344 134.417969 C 135.644531 134.972656 133.242188 135.375 130.742188 136.820312 C 128.386719 138.167969 126.300781 139.914062 124.183594 141.59375 C 112.140625 151.0625 103.683594 163.898438 102.101562 179.347656 C 100.488281 195.054688 100.078125 213.640625 108.074219 227.730469 C 116.042969 241.765625 128.109375 255.351562 142.96875 262.183594 C 157.152344 268.703125 173.15625 271.683594 188.738281 270.808594 C 221.675781 268.96875 256.695312 251.40625 265.71875 217.238281 Z M 267.175781 168.871094 C 276.652344 196.539062 272.363281 228.789062 250.667969 249.601562 C 227.613281 271.722656 192.484375 279.226562 161.667969 272.324219 C 147.050781 269.066406 133.328125 263.105469 122.625 252.394531 C 111.589844 241.359375 101.292969 228.1875 98.75 212.398438 C 96.476562 198.300781 96.386719 181.265625 100.550781 167.511719 C 104.578125 154.226562 113.5625 144.582031 124.484375 136.644531 C 118.984375 137.222656 113.460938 137.347656 108.011719 136.59375 C 107.738281 136.558594 107.523438 136.457031 107.359375 136.332031 C 106.453125 135.75 106.128906 134.367188 107.335938 133.828125 C 113.011719 131.347656 118.390625 130.125 124.460938 128.96875 C 130.535156 127.820312 136.628906 126.097656 142.78125 125.390625 C 144.351562 125.214844 146.066406 125.328125 147.445312 124.777344 C 151.660156 123.066406 156.546875 122.589844 161.085938 122.058594 C 166.160156 121.46875 171.332031 121.269531 176.40625 121.972656 C 176.4375 117.804688 176.113281 113.640625 175.222656 109.890625 C 175.222656 109.851562 175.222656 109.820312 175.210938 109.777344 C 175.046875 109.550781 174.964844 109.25 175.003906 108.863281 C 175.535156 104.835938 184.9375 95.898438 187.742188 102.28125 C 187.816406 102.480469 187.867188 102.667969 187.867188 102.855469 C 187.917969 103.011719 187.941406 103.175781 187.941406 103.363281 C 187.765625 109.976562 186.558594 115.1875 188.863281 121.445312 C 197.175781 121.359375 205.566406 120.863281 213.828125 122.183594 C 215.890625 122.515625 217.925781 122.953125 219.929688 123.5625 C 221.613281 124.0625 223.511719 125.257812 225.238281 124.988281 C 229.878906 124.261719 234.335938 122.390625 239.054688 121.746094 C 247.273438 120.636719 259.636719 119.753906 266.457031 125.570312 C 267.390625 126.363281 266.890625 127.496094 266.019531 127.921875 C 265.871094 128.152344 265.667969 128.316406 265.386719 128.316406 C 259.097656 128.316406 253.410156 128.015625 247.585938 128.363281 C 243.972656 128.578125 240.726562 129.660156 237.472656 130.714844 C 250.820312 140.796875 261.628906 152.6875 267.175781 168.871094 " fill-opacity="1" fill-rule="nonzero"/><path fill="#ff3131" d="M 263.683594 177.261719 C 264.234375 180.304688 264.308594 183.085938 264.195312 185.078125 C 264.070312 187.078125 263.789062 188.296875 263.503906 188.296875 C 262.863281 188.296875 262.625 183.417969 261.601562 177.652344 C 261.058594 174.78125 260.320312 172.265625 259.585938 170.53125 C 258.898438 168.820312 258.214844 167.722656 258.472656 167.535156 C 258.671875 167.371094 259.730469 168.042969 260.910156 169.828125 C 262.082031 171.539062 263.125 174.230469 263.683594 177.261719 " fill-opacity="1" fill-rule="nonzero"/><path fill="#ff3131" d="M 260.984375 203.710938 C 261.214844 203.722656 261.359375 207.167969 260.308594 212.617188 C 260.167969 213.300781 260.019531 214.019531 259.867188 214.746094 C 259.6875 215.492188 259.460938 216.242188 259.25 217.027344 C 258.847656 218.609375 258.214844 220.246094 257.613281 221.980469 C 256.265625 225.394531 254.519531 229.058594 252.292969 232.667969 C 250.011719 236.261719 247.460938 239.421875 244.929688 242.089844 C 243.609375 243.375 242.402344 244.628906 241.105469 245.648438 C 240.476562 246.167969 239.882812 246.695312 239.28125 247.152344 C 238.664062 247.589844 238.074219 248.015625 237.503906 248.417969 C 232.863281 251.59375 229.644531 252.65625 229.53125 252.46875 C 229.335938 252.15625 232.410156 250.558594 236.601562 247.214844 C 237.128906 246.796875 237.683594 246.34375 238.25 245.875 C 238.800781 245.398438 239.355469 244.871094 239.933594 244.328125 C 241.128906 243.300781 242.261719 242.027344 243.507812 240.757812 C 245.871094 238.101562 248.289062 235.007812 250.492188 231.546875 C 252.660156 228.050781 254.394531 224.535156 255.804688 221.253906 C 256.429688 219.59375 257.09375 218.035156 257.5625 216.507812 C 257.816406 215.753906 258.054688 215.023438 258.285156 214.320312 C 258.484375 213.613281 258.671875 212.9375 258.847656 212.28125 C 260.257812 207.082031 260.632812 203.710938 260.984375 203.710938 " fill-opacity="1" fill-rule="nonzero"/><path fill="#ff3131" d="M 241.429688 146.246094 C 242.726562 147.933594 243.269531 149.140625 243.058594 149.289062 C 242.800781 149.480469 241.84375 148.609375 240.351562 147.292969 C 238.824219 145.984375 236.640625 144.320312 234.070312 142.671875 C 228.871094 139.464844 224.257812 137.296875 224.496094 136.707031 C 224.609375 136.445312 225.878906 136.671875 227.839844 137.335938 C 229.820312 138.03125 232.472656 139.175781 235.203125 140.875 C 237.910156 142.609375 240.109375 144.59375 241.429688 146.246094 " fill-opacity="1" fill-rule="nonzero"/><path fill="#ff3131" d="M 210.652344 260.023438 C 210.742188 260.25 207.722656 261.757812 202.449219 262.953125 C 199.824219 263.605469 196.625 264.019531 193.066406 264.351562 C 189.503906 264.589844 185.574219 264.652344 181.460938 264.386719 C 177.347656 264.082031 173.457031 263.53125 169.960938 262.816406 C 166.472656 262.035156 163.367188 261.175781 160.847656 260.210938 C 155.738281 258.320312 152.988281 256.460938 153.089844 256.246094 C 153.226562 255.933594 156.269531 257.328125 161.3125 258.789062 C 163.84375 259.554688 166.917969 260.234375 170.335938 260.894531 C 173.769531 261.496094 177.589844 261.972656 181.597656 262.273438 C 185.625 262.523438 189.464844 262.523438 192.953125 262.398438 C 196.421875 262.183594 199.566406 261.933594 202.171875 261.480469 C 207.382812 260.6875 210.539062 259.691406 210.652344 260.023438 " fill-opacity="1" fill-rule="nonzero"/><path fill="#ff3131" d="M 178.390625 109.335938 C 178.378906 109.335938 178.378906 109.335938 178.378906 109.351562 L 178.378906 109.335938 L 178.390625 109.335938 " fill-opacity="1" fill-rule="nonzero"/><path fill="#ff3131" d="M 178.378906 109.351562 C 178.378906 109.375 178.417969 109.4375 178.355469 109.4375 L 178.378906 109.351562 " fill-opacity="1" fill-rule="nonzero"/><path fill="#ff3131" d="M 178.355469 109.4375 L 178.355469 109.453125 L 178.304688 109.5 L 178.304688 109.4375 C 178.328125 109.453125 178.339844 109.4375 178.355469 109.4375 " fill-opacity="1" fill-rule="nonzero"/><path fill="#ff3131" d="M 142.390625 137.335938 C 142.503906 137.597656 141.445312 138.34375 139.585938 139.25 C 137.710938 140.152344 135.042969 141.125 132.199219 142.207031 C 129.332031 143.285156 126.988281 144.605469 125.273438 145.550781 C 123.578125 146.671875 122.449219 147.324219 122.261719 147.085938 C 122.085938 146.875 122.835938 145.828125 124.320312 144.394531 C 125.945312 143.007812 128.4375 141.347656 131.417969 140.234375 C 134.386719 139.09375 137.09375 138.367188 139.058594 137.855469 C 141.007812 137.308594 142.265625 137.058594 142.390625 137.335938 " fill-opacity="1" fill-rule="nonzero"/><path fill="#ff3131" d="M 118.257812 230.78125 C 119.625 232.804688 120.582031 234 120.371094 234.226562 C 120.195312 234.425781 118.824219 233.585938 117.085938 231.71875 C 115.347656 229.871094 113.285156 227.015625 111.550781 223.554688 C 109.828125 220.082031 108.769531 216.683594 108.46875 214.144531 C 108.113281 211.550781 108.46875 210.019531 108.730469 210 C 109.046875 210 109.246094 211.566406 109.941406 213.828125 C 110.59375 216.15625 111.800781 219.277344 113.449219 222.601562 C 115.109375 225.90625 116.886719 228.777344 118.257812 230.78125 " fill-opacity="1" fill-rule="nonzero"/><path fill="#ff3131" d="M 115.339844 158.410156 C 115.601562 158.566406 114.746094 160.539062 113.285156 163.644531 C 111.988281 166.777344 110.242188 171.125 109.148438 176.167969 C 108.089844 181.226562 107.710938 185.929688 107.371094 189.355469 C 107.097656 192.777344 106.828125 194.90625 106.527344 194.90625 C 106.238281 194.90625 105.988281 192.765625 105.875 189.292969 C 105.839844 185.832031 105.976562 180.988281 107.066406 175.726562 C 108.214844 170.464844 110.265625 166 111.964844 162.925781 C 113.78125 159.976562 115.097656 158.273438 115.339844 158.410156 " fill-opacity="1" fill-rule="nonzero"/><g fill="#ffffff" fill-opacity="1"><g transform="translate(58.25679, 132.146297)"><g><path d="M -24.078125 -18.234375 L -7.46875 -9.953125 C -5.46875 -8.953125 -3.863281 -8.304688 -2.65625 -8.015625 C -1.445312 -7.722656 -0.515625 -7.726562 0.140625 -8.03125 C 0.804688 -8.332031 1.335938 -8.851562 1.734375 -9.59375 C 2.378906 -10.875 2.453125 -11.9375 1.953125 -12.78125 C 1.460938 -13.632812 0.628906 -14.351562 -0.546875 -14.9375 L -20.28125 -24.75 C -20.007812 -25.757812 -19.585938 -26.960938 -19.015625 -28.359375 L 4.34375 -16.6875 C 5.65625 -16.03125 6.828125 -15.71875 7.859375 -15.75 L 5.96875 -11.953125 C 5.96875 -11.953125 5.820312 -12.007812 5.53125 -12.125 C 5.25 -12.25 4.894531 -12.398438 4.46875 -12.578125 C 4.039062 -12.753906 3.617188 -12.925781 3.203125 -13.09375 L 3.0625 -12.828125 C 3.769531 -11.953125 4.195312 -11.054688 4.34375 -10.140625 C 4.5 -9.234375 4.34375 -8.316406 3.875 -7.390625 C 2.675781 -5.285156 1.046875 -4.1875 -1.015625 -4.09375 C -3.085938 -4.007812 -5.8125 -4.8125 -9.1875 -6.5 L -25.359375 -14.5625 C -25.242188 -15.050781 -25.070312 -15.617188 -24.84375 -16.265625 C -24.613281 -16.910156 -24.359375 -17.566406 -24.078125 -18.234375 Z M -24.078125 -18.234375 "/></g></g></g><g fill="#ffffff" fill-opacity="1"><g transform="translate(68.252383, 112.612356)"><g><path d="M -5.8125 -24.6875 L 6.796875 -15.671875 C 7.992188 -14.828125 9.109375 -14.34375 10.140625 -14.21875 L 7.734375 -10.84375 C 7.734375 -10.84375 7.59375 -10.929688 7.3125 -11.109375 C 7.039062 -11.285156 6.703125 -11.488281 6.296875 -11.71875 C 5.898438 -11.957031 5.535156 -12.191406 5.203125 -12.421875 L 5.03125 -12.171875 C 6.144531 -10.128906 6.078125 -8.234375 4.828125 -6.484375 C 3.359375 -4.660156 1.382812 -3.90625 -1.09375 -4.21875 C -3.582031 -4.53125 -6.40625 -5.816406 -9.5625 -8.078125 C -12.675781 -10.296875 -14.976562 -12.546875 -16.46875 -14.828125 C -17.96875 -17.109375 -18.769531 -19.273438 -18.875 -21.328125 C -18.988281 -23.390625 -18.5 -25.1875 -17.40625 -26.71875 C -16.84375 -27.507812 -16.34375 -28.101562 -15.90625 -28.5 C -15.46875 -28.894531 -14.988281 -29.253906 -14.46875 -29.578125 L -10.828125 -26.96875 C -11.492188 -26.925781 -12.164062 -26.757812 -12.84375 -26.46875 C -13.53125 -26.175781 -14.179688 -25.597656 -14.796875 -24.734375 C -15.484375 -23.773438 -15.75 -22.644531 -15.59375 -21.34375 C -15.445312 -20.039062 -14.710938 -18.5625 -13.390625 -16.90625 C -12.066406 -15.257812 -9.992188 -13.429688 -7.171875 -11.421875 C -5.097656 -9.941406 -3.390625 -8.9375 -2.046875 -8.40625 C -0.703125 -7.875 0.375 -7.703125 1.1875 -7.890625 C 2.007812 -8.085938 2.679688 -8.515625 3.203125 -9.171875 C 3.796875 -10.003906 3.972656 -10.960938 3.734375 -12.046875 C 3.503906 -13.128906 2.851562 -14.050781 1.78125 -14.8125 L -5.421875 -19.953125 C -5.984375 -19.160156 -6.378906 -18.453125 -6.609375 -17.828125 C -6.835938 -17.203125 -6.972656 -16.585938 -7.015625 -15.984375 L -10.359375 -18.359375 C -9.859375 -19.253906 -9.382812 -20.046875 -8.9375 -20.734375 C -8.488281 -21.421875 -8.015625 -22.082031 -7.515625 -22.71875 C -7.023438 -23.351562 -6.457031 -24.007812 -5.8125 -24.6875 Z M -5.8125 -24.6875 "/></g></g></g><g fill="#ffffff" fill-opacity="1"><g transform="translate(81.152168, 95.102528)"><g><path d="M 1.984375 -6.59375 L 2 -6.609375 C 2.332031 -6.835938 2.6875 -7.140625 3.0625 -7.515625 C 3.4375 -7.890625 3.859375 -8.320312 4.328125 -8.8125 C 5.015625 -9.53125 5.59375 -10.28125 6.0625 -11.0625 C 6.539062 -11.851562 6.875 -12.648438 7.0625 -13.453125 L 9.546875 -11.0625 C 8.734375 -9.488281 7.453125 -7.789062 5.703125 -5.96875 C 4.796875 -5.019531 3.976562 -4.210938 3.25 -3.546875 C 2.519531 -2.878906 1.898438 -2.347656 1.390625 -1.953125 L -19.46875 -21.90625 C -18.894531 -22.800781 -18.140625 -23.816406 -17.203125 -24.953125 Z M 1.984375 -6.59375 "/></g></g></g><g fill="#ffffff" fill-opacity="1"><g transform="translate(93.769734, 82.121407)"><g><path d="M -5.46875 -20.484375 L -5.1875 -20.71875 L -7.5625 -26.921875 C -7.769531 -27.460938 -8.019531 -27.953125 -8.3125 -28.390625 C -8.601562 -28.835938 -8.925781 -29.238281 -9.28125 -29.59375 L -5.6875 -32.453125 C -5.53125 -31.546875 -5.234375 -30.578125 -4.796875 -29.546875 L 5.296875 -4.21875 C 4.679688 -3.769531 4.078125 -3.351562 3.484375 -2.96875 C 2.890625 -2.59375 2.382812 -2.296875 1.96875 -2.078125 L -4.359375 -18.53125 C -4.796875 -18.175781 -5.367188 -17.851562 -6.078125 -17.5625 C -6.785156 -17.269531 -7.648438 -17.195312 -8.671875 -17.34375 C -9.492188 -17.476562 -10.445312 -17.816406 -11.53125 -18.359375 C -12.613281 -18.898438 -13.8125 -19.78125 -15.125 -21 C -15.5 -21.363281 -15.890625 -21.742188 -16.296875 -22.140625 C -16.703125 -22.546875 -17.066406 -22.875 -17.390625 -23.125 L -14.1875 -25.6875 C -13.957031 -25.226562 -13.644531 -24.757812 -13.25 -24.28125 C -12.863281 -23.8125 -12.472656 -23.398438 -12.078125 -23.046875 C -11.003906 -22.097656 -10.082031 -21.40625 -9.3125 -20.96875 C -8.539062 -20.539062 -7.890625 -20.273438 -7.359375 -20.171875 C -6.953125 -20.085938 -6.59375 -20.085938 -6.28125 -20.171875 C -5.96875 -20.253906 -5.695312 -20.359375 -5.46875 -20.484375 Z M -5.46875 -20.484375 "/></g></g></g><g fill="#ffffff" fill-opacity="1"><g transform="translate(109.324192, 70.267589)"><g/></g></g><g fill="#ffffff" fill-opacity="1"><g transform="translate(117.904101, 64.92539)"><g><path d="M -8.453125 -29.125 L 5.453125 -2.890625 C 4.734375 -2.554688 4.070312 -2.257812 3.46875 -2 C 2.875 -1.75 2.363281 -1.550781 1.9375 -1.40625 L -11.578125 -26.90625 C -10.773438 -27.570312 -9.734375 -28.3125 -8.453125 -29.125 Z M -8.453125 -29.125 "/></g></g></g><g fill="#ffffff" fill-opacity="1"><g transform="translate(128.117753, 59.446408)"><g><path d="M -4.078125 -23.359375 C -3.796875 -22.617188 -3.273438 -22.007812 -2.515625 -21.53125 C -1.753906 -21.0625 -0.851562 -20.65625 0.1875 -20.3125 C 1.226562 -19.96875 2.320312 -19.617188 3.46875 -19.265625 C 4.632812 -18.890625 5.789062 -18.4375 6.9375 -17.90625 C 8.09375 -17.375 9.140625 -16.675781 10.078125 -15.8125 C 11.023438 -14.945312 11.773438 -13.820312 12.328125 -12.4375 C 12.816406 -11.1875 12.960938 -9.953125 12.765625 -8.734375 C 12.566406 -7.515625 12.050781 -6.40625 11.21875 -5.40625 C 10.382812 -4.414062 9.253906 -3.640625 7.828125 -3.078125 C 6.773438 -2.660156 5.703125 -2.375 4.609375 -2.21875 C 3.515625 -2.0625 2.515625 -2.066406 1.609375 -2.234375 L -0.46875 -7.53125 C 0.0820312 -6.914062 0.78125 -6.429688 1.625 -6.078125 C 2.46875 -5.734375 3.34375 -5.523438 4.25 -5.453125 C 5.164062 -5.378906 5.992188 -5.488281 6.734375 -5.78125 C 7.867188 -6.226562 8.671875 -6.867188 9.140625 -7.703125 C 9.617188 -8.535156 9.632812 -9.53125 9.1875 -10.6875 C 8.820312 -11.59375 8.226562 -12.328125 7.40625 -12.890625 C 6.59375 -13.453125 5.632812 -13.921875 4.53125 -14.296875 C 3.4375 -14.679688 2.304688 -15.054688 1.140625 -15.421875 C 0.0234375 -15.796875 -1.078125 -16.226562 -2.171875 -16.71875 C -3.265625 -17.21875 -4.253906 -17.878906 -5.140625 -18.703125 C -6.035156 -19.535156 -6.738281 -20.601562 -7.25 -21.90625 C -7.738281 -23.144531 -7.867188 -24.34375 -7.640625 -25.5 C -7.410156 -26.65625 -6.863281 -27.703125 -6 -28.640625 C -5.144531 -29.578125 -4.035156 -30.316406 -2.671875 -30.859375 C -1.742188 -31.222656 -0.875 -31.457031 -0.0625 -31.5625 C 0.75 -31.675781 1.515625 -31.703125 2.234375 -31.640625 L 4.171875 -26.71875 C 3.359375 -27.613281 2.421875 -28.195312 1.359375 -28.46875 C 0.304688 -28.75 -0.703125 -28.703125 -1.671875 -28.328125 C -2.878906 -27.847656 -3.6875 -27.160156 -4.09375 -26.265625 C -4.5 -25.378906 -4.492188 -24.410156 -4.078125 -23.359375 Z M -4.078125 -23.359375 "/></g></g></g><g fill="#ffffff" fill-opacity="1"><g transform="translate(146.559593, 52.64652)"><g/></g></g><g fill="#ffffff" fill-opacity="1"><g transform="translate(155.947552, 49.851127)"><g><path d="M 10.359375 -21.0625 L 10.59375 -21.09375 L 9.09375 -30.890625 C 9.582031 -31.078125 10.132812 -31.257812 10.75 -31.4375 C 11.363281 -31.625 12.035156 -31.800781 12.765625 -31.96875 L 17.234375 -2.625 C 16.453125 -2.5 15.738281 -2.425781 15.09375 -2.40625 C 14.445312 -2.394531 13.894531 -2.378906 13.4375 -2.359375 L 11.453125 -15.421875 C 10.835938 -16.265625 10.082031 -17.023438 9.1875 -17.703125 C 8.289062 -18.378906 7.34375 -19.054688 6.34375 -19.734375 C 5.34375 -20.410156 4.375 -21.132812 3.4375 -21.90625 L 3.15625 -21.875 L 6.328125 -0.96875 C 5.546875 -0.84375 4.910156 -0.765625 4.421875 -0.734375 C 3.941406 -0.710938 3.441406 -0.6875 2.921875 -0.65625 L -0.59375 -23.765625 C -0.75 -24.816406 -0.988281 -25.738281 -1.3125 -26.53125 C -1.644531 -27.332031 -2.078125 -27.984375 -2.609375 -28.484375 L 1.859375 -30.3125 L 2.0625 -29 C 2.4375 -27.820312 3.0625 -26.789062 3.9375 -25.90625 C 4.820312 -25.03125 5.828125 -24.210938 6.953125 -23.453125 C 8.078125 -22.703125 9.210938 -21.90625 10.359375 -21.0625 Z M 10.359375 -21.0625 "/></g></g></g><g fill="#ffffff" fill-opacity="1"><g transform="translate(178.157437, 46.704893)"><g><path d="M 5.828125 -29.640625 L 5.65625 -11.078125 C 5.632812 -8.835938 5.757812 -7.109375 6.03125 -5.890625 C 6.300781 -4.679688 6.71875 -3.847656 7.28125 -3.390625 C 7.851562 -2.929688 8.554688 -2.679688 9.390625 -2.640625 C 10.816406 -2.617188 11.800781 -3.019531 12.34375 -3.84375 C 12.894531 -4.664062 13.175781 -5.734375 13.1875 -7.046875 L 13.359375 -29.09375 C 14.378906 -29.289062 15.644531 -29.4375 17.15625 -29.53125 L 16.890625 -3.40625 C 16.878906 -1.9375 17.117188 -0.75 17.609375 0.15625 L 13.359375 0.125 C 13.359375 0.125 13.347656 -0.0234375 13.328125 -0.328125 C 13.316406 -0.640625 13.296875 -1.03125 13.265625 -1.5 C 13.234375 -1.96875 13.207031 -2.425781 13.1875 -2.875 L 12.890625 -2.875 C 12.398438 -1.851562 11.78125 -1.070312 11.03125 -0.53125 C 10.28125 0 9.382812 0.257812 8.34375 0.25 C 5.925781 0.09375 4.222656 -0.894531 3.234375 -2.71875 C 2.242188 -4.539062 1.765625 -7.335938 1.796875 -11.109375 L 1.96875 -29.1875 C 2.457031 -29.300781 3.039062 -29.390625 3.71875 -29.453125 C 4.40625 -29.523438 5.109375 -29.585938 5.828125 -29.640625 Z M 5.828125 -29.640625 "/></g></g></g><g fill="#ffffff" fill-opacity="1"><g transform="translate(200.210045, 47.261018)"><g><path d="M 11.71875 -28.234375 C 12.96875 -28.046875 14.210938 -27.796875 15.453125 -27.484375 C 16.703125 -27.171875 17.734375 -26.828125 18.546875 -26.453125 L 18.03125 -23.015625 C 17.5 -23.484375 16.753906 -23.894531 15.796875 -24.25 C 14.847656 -24.601562 13.96875 -24.863281 13.15625 -25.03125 L 9.125 1.390625 C 7.6875 1.054688 6.472656 0.710938 5.484375 0.359375 L 9.4375 -25.5625 C 8.59375 -25.644531 7.660156 -25.660156 6.640625 -25.609375 C 5.628906 -25.554688 4.804688 -25.382812 4.171875 -25.09375 L 4.703125 -28.53125 C 5.578125 -28.644531 6.65625 -28.660156 7.9375 -28.578125 C 9.226562 -28.503906 10.488281 -28.390625 11.71875 -28.234375 Z M 11.71875 -28.234375 "/></g></g></g><g fill="#ffffff" fill-opacity="1"><g transform="translate(217.496614, 49.969923)"><g><path d="M 16.453125 4.90625 L 11.609375 3.46875 C 12.046875 2.4375 12.320312 1.1875 12.4375 -0.28125 L 13.296875 -13.953125 L 10.828125 -14.6875 L 5.921875 1.765625 C 5.171875 1.492188 4.492188 1.238281 3.890625 1 C 3.285156 0.769531 2.78125 0.550781 2.375 0.34375 L 10.59375 -27.1875 C 11.4375 -27.125 12.460938 -26.96875 13.671875 -26.71875 C 14.890625 -26.476562 16.128906 -26.171875 17.390625 -25.796875 C 19.597656 -25.140625 21.210938 -24.125 22.234375 -22.75 C 23.253906 -21.375 23.488281 -19.757812 22.9375 -17.90625 C 22.625 -16.851562 22.101562 -16.03125 21.375 -15.4375 C 20.65625 -14.84375 19.890625 -14.441406 19.078125 -14.234375 C 18.265625 -14.035156 17.53125 -13.984375 16.875 -14.078125 L 15.921875 1.0625 C 15.890625 1.832031 15.914062 2.53125 16 3.15625 C 16.082031 3.789062 16.234375 4.375 16.453125 4.90625 Z M 11.65625 -17.4375 L 14.609375 -16.546875 C 15.691406 -16.234375 16.648438 -16.257812 17.484375 -16.625 C 18.328125 -16.988281 18.90625 -17.695312 19.21875 -18.75 C 19.539062 -19.820312 19.488281 -20.703125 19.0625 -21.390625 C 18.632812 -22.078125 17.878906 -22.585938 16.796875 -22.921875 C 16.054688 -23.140625 15.421875 -23.300781 14.890625 -23.40625 C 14.367188 -23.519531 13.90625 -23.59375 13.5 -23.625 Z M 11.65625 -17.4375 "/></g></g></g><g fill="#ffffff" fill-opacity="1"><g transform="translate(237.625954, 56.454145)"><g><path d="M 17.453125 -24.796875 L 5.671875 2.453125 C 4.960938 2.097656 4.320312 1.765625 3.75 1.453125 C 3.175781 1.140625 2.703125 0.863281 2.328125 0.625 L 13.765625 -25.875 C 14.773438 -25.65625 16.003906 -25.296875 17.453125 -24.796875 Z M 17.453125 -24.796875 "/></g></g></g><g fill="#ffffff" fill-opacity="1"><g transform="translate(248.311805, 61.074566)"><g><path d="M 20.96875 -22.25 C 22.082031 -21.625 23.160156 -20.941406 24.203125 -20.203125 C 25.253906 -19.472656 26.085938 -18.789062 26.703125 -18.15625 L 25 -15.125 C 24.6875 -15.75 24.144531 -16.394531 23.375 -17.0625 C 22.613281 -17.726562 21.882812 -18.285156 21.1875 -18.734375 L 8.046875 4.546875 C 6.804688 3.710938 5.789062 2.957031 5 2.28125 L 17.890625 -20.5625 C 17.128906 -20.9375 16.265625 -21.28125 15.296875 -21.59375 C 14.328125 -21.90625 13.492188 -22.035156 12.796875 -21.984375 L 14.5 -25 C 15.375 -24.800781 16.398438 -24.4375 17.578125 -23.90625 C 18.753906 -23.382812 19.882812 -22.832031 20.96875 -22.25 Z M 20.96875 -22.25 "/></g></g></g><g fill="#ffffff" fill-opacity="1"><g transform="translate(263.619954, 70.086467)"><g><path d="M 22.265625 -20.578125 L 5.015625 3.578125 C 4.398438 3.085938 3.847656 2.628906 3.359375 2.203125 C 2.867188 1.785156 2.460938 1.414062 2.140625 1.09375 L 18.90625 -22.390625 C 19.84375 -21.960938 20.960938 -21.359375 22.265625 -20.578125 Z M 22.265625 -20.578125 "/></g></g></g><g fill="#ffffff" fill-opacity="1"><g transform="translate(273.143267, 76.143379)"><g><path d="M 12.40625 8.375 C 13.476562 9.425781 14.671875 10.148438 15.984375 10.546875 C 17.296875 10.953125 18.65625 11.066406 20.0625 10.890625 C 21.46875 10.710938 22.859375 10.269531 24.234375 9.5625 C 25.609375 8.863281 26.882812 7.914062 28.0625 6.71875 C 29.632812 5.125 30.78125 3.382812 31.5 1.5 C 32.21875 -0.375 32.421875 -2.21875 32.109375 -4.03125 C 31.796875 -5.851562 30.894531 -7.492188 29.40625 -8.953125 C 27.925781 -10.410156 26.273438 -11.273438 24.453125 -11.546875 C 22.628906 -11.828125 20.785156 -11.585938 18.921875 -10.828125 C 17.066406 -10.066406 15.351562 -8.890625 13.78125 -7.296875 C 12.601562 -6.097656 11.671875 -4.804688 10.984375 -3.421875 C 10.304688 -2.035156 9.894531 -0.640625 9.75 0.765625 C 9.601562 2.171875 9.742188 3.53125 10.171875 4.84375 C 10.597656 6.15625 11.34375 7.332031 12.40625 8.375 Z M 31.453125 -11.046875 C 32.941406 -9.585938 34.023438 -7.976562 34.703125 -6.21875 C 35.390625 -4.457031 35.691406 -2.648438 35.609375 -0.796875 C 35.535156 1.054688 35.101562 2.867188 34.3125 4.640625 C 33.519531 6.410156 32.394531 8.039062 30.9375 9.53125 C 29.476562 11.019531 27.867188 12.175781 26.109375 13 C 24.359375 13.820312 22.554688 14.289062 20.703125 14.40625 C 18.847656 14.519531 17.03125 14.253906 15.25 13.609375 C 13.476562 12.960938 11.847656 11.910156 10.359375 10.453125 C 8.878906 8.992188 7.796875 7.382812 7.109375 5.625 C 6.429688 3.863281 6.132812 2.054688 6.21875 0.203125 C 6.300781 -1.648438 6.734375 -3.460938 7.515625 -5.234375 C 8.304688 -7.015625 9.429688 -8.648438 10.890625 -10.140625 C 12.347656 -11.628906 13.957031 -12.78125 15.71875 -13.59375 C 17.476562 -14.414062 19.28125 -14.882812 21.125 -15 C 22.976562 -15.113281 24.789062 -14.847656 26.5625 -14.203125 C 28.34375 -13.554688 29.972656 -12.503906 31.453125 -11.046875 Z M 31.453125 -11.046875 "/></g></g></g><g fill="#ffffff" fill-opacity="1"><g transform="translate(295.30526, 98.894841)"><g><path d="M 27.625 -12.25 L 12.328125 -1.71875 C 10.484375 -0.457031 9.140625 0.628906 8.296875 1.546875 C 7.453125 2.472656 7.003906 3.296875 6.953125 4.015625 C 6.910156 4.742188 7.101562 5.460938 7.53125 6.171875 C 8.34375 7.335938 9.242188 7.910156 10.234375 7.890625 C 11.222656 7.878906 12.253906 7.5 13.328125 6.75 L 31.484375 -5.765625 C 32.222656 -5.035156 33.078125 -4.082031 34.046875 -2.90625 L 12.484375 11.875 C 11.273438 12.707031 10.441406 13.585938 9.984375 14.515625 L 7.5625 11 C 7.5625 11 7.679688 10.90625 7.921875 10.71875 C 8.171875 10.53125 8.476562 10.289062 8.84375 10 C 9.207031 9.707031 9.5625 9.425781 9.90625 9.15625 L 9.734375 8.90625 C 8.628906 9.082031 7.640625 9.015625 6.765625 8.703125 C 5.898438 8.398438 5.175781 7.820312 4.59375 6.96875 C 3.332031 4.90625 3.160156 2.945312 4.078125 1.09375 C 5.003906 -0.757812 7.023438 -2.753906 10.140625 -4.890625 L 25.03125 -15.140625 C 25.394531 -14.796875 25.800781 -14.367188 26.25 -13.859375 C 26.707031 -13.347656 27.164062 -12.8125 27.625 -12.25 Z M 27.625 -12.25 "/></g></g></g><g fill="#ffffff" fill-opacity="1"><g transform="translate(307.525942, 117.198113)"><g><path d="M 22.96875 -5.90625 C 22.25 -5.5625 21.679688 -4.988281 21.265625 -4.1875 C 20.847656 -3.394531 20.507812 -2.46875 20.25 -1.40625 C 20 -0.34375 19.738281 0.769531 19.46875 1.9375 C 19.195312 3.125 18.84375 4.316406 18.40625 5.515625 C 17.96875 6.710938 17.351562 7.8125 16.5625 8.8125 C 15.769531 9.8125 14.703125 10.640625 13.359375 11.296875 C 12.148438 11.878906 10.929688 12.125 9.703125 12.03125 C 8.472656 11.945312 7.332031 11.523438 6.28125 10.765625 C 5.226562 10.015625 4.363281 8.945312 3.6875 7.5625 C 3.1875 6.550781 2.8125 5.503906 2.5625 4.421875 C 2.320312 3.347656 2.253906 2.347656 2.359375 1.421875 L 7.46875 -1.078125 C 6.90625 -0.472656 6.476562 0.257812 6.1875 1.125 C 5.894531 2 5.753906 2.890625 5.765625 3.796875 C 5.773438 4.710938 5.953125 5.53125 6.296875 6.25 C 6.828125 7.34375 7.523438 8.09375 8.390625 8.5 C 9.253906 8.914062 10.242188 8.851562 11.359375 8.3125 C 12.242188 7.875 12.929688 7.222656 13.421875 6.359375 C 13.921875 5.503906 14.316406 4.515625 14.609375 3.390625 C 14.898438 2.273438 15.1875 1.125 15.46875 -0.0625 C 15.75 -1.207031 16.09375 -2.34375 16.5 -3.46875 C 16.90625 -4.601562 17.488281 -5.644531 18.25 -6.59375 C 19.007812 -7.539062 20.015625 -8.320312 21.265625 -8.9375 C 22.460938 -9.519531 23.644531 -9.742188 24.8125 -9.609375 C 25.988281 -9.484375 27.078125 -9.023438 28.078125 -8.234375 C 29.078125 -7.453125 29.898438 -6.398438 30.546875 -5.078125 C 30.984375 -4.179688 31.289062 -3.332031 31.46875 -2.53125 C 31.644531 -1.738281 31.726562 -0.976562 31.71875 -0.25 L 26.96875 2.0625 C 27.789062 1.1875 28.300781 0.210938 28.5 -0.859375 C 28.695312 -1.941406 28.566406 -2.953125 28.109375 -3.890625 C 27.535156 -5.054688 26.789062 -5.804688 25.875 -6.140625 C 24.957031 -6.484375 23.988281 -6.40625 22.96875 -5.90625 Z M 22.96875 -5.90625 "/></g></g></g><g fill="#ffffff" fill-opacity="1"><g transform="translate(41.190465, 263.613406)"><g><path d="M 29.046875 -8.265625 L 12.4375 0.015625 C 10.4375 1.015625 8.957031 1.910156 8 2.703125 C 7.039062 3.492188 6.484375 4.242188 6.328125 4.953125 C 6.179688 5.660156 6.273438 6.394531 6.609375 7.15625 C 7.253906 8.4375 8.0625 9.132812 9.03125 9.25 C 10.007812 9.375 11.085938 9.144531 12.265625 8.5625 L 31.96875 -1.3125 C 32.613281 -0.488281 33.328125 0.566406 34.109375 1.859375 L 10.71875 13.5 C 9.40625 14.15625 8.453125 14.90625 7.859375 15.75 L 5.96875 11.953125 C 5.96875 11.953125 6.097656 11.875 6.359375 11.71875 C 6.628906 11.570312 6.960938 11.378906 7.359375 11.140625 C 7.753906 10.898438 8.148438 10.664062 8.546875 10.4375 L 8.40625 10.171875 C 7.28125 10.191406 6.304688 9.988281 5.484375 9.5625 C 4.671875 9.144531 4.03125 8.472656 3.5625 7.546875 C 2.613281 5.316406 2.722656 3.347656 3.890625 1.640625 C 5.066406 -0.0546875 7.34375 -1.75 10.71875 -3.4375 L 26.890625 -11.5 C 27.210938 -11.113281 27.5625 -10.632812 27.9375 -10.0625 C 28.3125 -9.488281 28.679688 -8.890625 29.046875 -8.265625 Z M 29.046875 -8.265625 "/></g></g></g><g fill="#ffffff" fill-opacity="1"><g transform="translate(52.639756, 285.565728)"><g><path d="M 25.21875 2.53125 L 12.609375 11.546875 C 11.410156 12.390625 10.585938 13.28125 10.140625 14.21875 L 7.734375 10.84375 C 7.734375 10.84375 7.859375 10.738281 8.109375 10.53125 C 8.367188 10.320312 8.675781 10.066406 9.03125 9.765625 C 9.394531 9.472656 9.734375 9.203125 10.046875 8.953125 L 9.875 8.703125 C 7.570312 9.097656 5.796875 8.421875 4.546875 6.671875 C 3.304688 4.703125 3.238281 2.59375 4.34375 0.34375 C 5.457031 -1.90625 7.59375 -4.160156 10.75 -6.421875 C 13.863281 -8.640625 16.738281 -10.085938 19.375 -10.765625 C 22.019531 -11.441406 24.332031 -11.492188 26.3125 -10.921875 C 28.300781 -10.359375 29.84375 -9.3125 30.9375 -7.78125 C 31.5 -6.988281 31.894531 -6.320312 32.125 -5.78125 C 32.351562 -5.238281 32.539062 -4.671875 32.6875 -4.078125 L 29.046875 -1.46875 C 29.210938 -2.113281 29.265625 -2.804688 29.203125 -3.546875 C 29.148438 -4.285156 28.816406 -5.085938 28.203125 -5.953125 C 27.515625 -6.910156 26.53125 -7.53125 25.25 -7.8125 C 23.976562 -8.09375 22.347656 -7.875 20.359375 -7.15625 C 18.367188 -6.445312 15.960938 -5.085938 13.140625 -3.078125 C 11.066406 -1.597656 9.554688 -0.304688 8.609375 0.796875 C 7.660156 1.898438 7.144531 2.867188 7.0625 3.703125 C 6.988281 4.546875 7.179688 5.316406 7.640625 6.015625 C 8.234375 6.847656 9.078125 7.328125 10.171875 7.453125 C 11.273438 7.578125 12.363281 7.257812 13.4375 6.5 L 20.640625 1.359375 C 20.078125 0.566406 19.535156 -0.0351562 19.015625 -0.453125 C 18.492188 -0.867188 17.953125 -1.203125 17.390625 -1.453125 L 20.734375 -3.828125 C 21.421875 -3.054688 22.015625 -2.347656 22.515625 -1.703125 C 23.015625 -1.054688 23.484375 -0.394531 23.921875 0.28125 C 24.367188 0.957031 24.800781 1.707031 25.21875 2.53125 Z M 25.21875 2.53125 "/></g></g></g><g fill="#ffffff" fill-opacity="1"><g transform="translate(67.182428, 305.060305)"><g><path d="M 6.515625 2.28125 L 6.53125 2.296875 C 6.738281 2.628906 7.019531 2.992188 7.375 3.390625 C 7.726562 3.785156 8.140625 4.226562 8.609375 4.71875 C 9.296875 5.4375 10.019531 6.046875 10.78125 6.546875 C 11.550781 7.054688 12.332031 7.421875 13.125 7.640625 L 10.640625 10.03125 C 9.097656 9.144531 7.453125 7.789062 5.703125 5.96875 C 4.796875 5.019531 4.023438 4.164062 3.390625 3.40625 C 2.753906 2.644531 2.253906 2.003906 1.890625 1.484375 L 22.75 -18.46875 C 23.613281 -17.863281 24.597656 -17.066406 25.703125 -16.078125 Z M 6.515625 2.28125 "/></g></g></g><g fill="#ffffff" fill-opacity="1"><g transform="translate(81.589662, 319.676317)"><g><path d="M 18.75 -9.921875 L 19.03125 -9.6875 L 24.5625 -13.390625 C 25.039062 -13.703125 25.460938 -14.050781 25.828125 -14.4375 C 26.191406 -14.832031 26.507812 -15.238281 26.78125 -15.65625 L 30.375 -12.796875 C 29.53125 -12.429688 28.648438 -11.921875 27.734375 -11.265625 L 5.296875 4.21875 C 4.722656 3.707031 4.1875 3.207031 3.6875 2.71875 C 3.1875 2.238281 2.78125 1.816406 2.46875 1.453125 L 17.078125 -8.375 C 16.640625 -8.726562 16.203125 -9.21875 15.765625 -9.84375 C 15.328125 -10.46875 15.066406 -11.289062 14.984375 -12.3125 C 14.929688 -13.15625 15.046875 -14.164062 15.328125 -15.34375 C 15.609375 -16.519531 16.195312 -17.882812 17.09375 -19.4375 C 17.363281 -19.882812 17.648438 -20.347656 17.953125 -20.828125 C 18.253906 -21.316406 18.492188 -21.75 18.671875 -22.125 L 21.875 -19.5625 C 21.476562 -19.25 21.085938 -18.84375 20.703125 -18.34375 C 20.328125 -17.851562 20.015625 -17.378906 19.765625 -16.921875 C 19.085938 -15.660156 18.617188 -14.601562 18.359375 -13.75 C 18.097656 -12.90625 17.984375 -12.210938 18.015625 -11.671875 C 18.023438 -11.253906 18.109375 -10.90625 18.265625 -10.625 C 18.421875 -10.34375 18.582031 -10.109375 18.75 -9.921875 Z M 18.75 -9.921875 "/></g></g></g><g fill="#ffffff" fill-opacity="1"><g transform="translate(98.697635, 332.638526)"><g/></g></g><g fill="#ffffff" fill-opacity="1"><g transform="translate(108.509606, 338.697619)"><g><path d="M 19.359375 -23.34375 L 5.453125 2.890625 C 4.773438 2.472656 4.160156 2.085938 3.609375 1.734375 C 3.066406 1.390625 2.613281 1.082031 2.25 0.8125 L 15.765625 -24.6875 C 16.773438 -24.394531 17.972656 -23.945312 19.359375 -23.34375 Z M 19.359375 -23.34375 "/></g></g></g><g fill="#ffffff" fill-opacity="1"><g transform="translate(120.560121, 345.02152)"><g><path d="M 12.921875 -19.890625 C 12.640625 -19.148438 12.613281 -18.34375 12.84375 -17.46875 C 13.070312 -16.601562 13.453125 -15.691406 13.984375 -14.734375 C 14.515625 -13.773438 15.070312 -12.773438 15.65625 -11.734375 C 16.257812 -10.671875 16.800781 -9.550781 17.28125 -8.375 C 17.769531 -7.195312 18.0625 -5.972656 18.15625 -4.703125 C 18.257812 -3.429688 18.035156 -2.101562 17.484375 -0.71875 C 16.992188 0.53125 16.265625 1.535156 15.296875 2.296875 C 14.328125 3.054688 13.195312 3.515625 11.90625 3.671875 C 10.613281 3.835938 9.253906 3.640625 7.828125 3.078125 C 6.773438 2.660156 5.796875 2.140625 4.890625 1.515625 C 3.984375 0.890625 3.253906 0.203125 2.703125 -0.546875 L 4.78125 -5.84375 C 4.769531 -5.019531 4.953125 -4.1875 5.328125 -3.34375 C 5.703125 -2.507812 6.195312 -1.757812 6.8125 -1.09375 C 7.4375 -0.425781 8.117188 0.0507812 8.859375 0.34375 C 9.992188 0.789062 11.019531 0.875 11.9375 0.59375 C 12.863281 0.3125 13.550781 -0.40625 14 -1.5625 C 14.363281 -2.46875 14.429688 -3.40625 14.203125 -4.375 C 13.984375 -5.34375 13.601562 -6.335938 13.0625 -7.359375 C 12.53125 -8.390625 11.960938 -9.441406 11.359375 -10.515625 C 10.785156 -11.535156 10.265625 -12.597656 9.796875 -13.703125 C 9.328125 -14.816406 9.050781 -15.976562 8.96875 -17.1875 C 8.894531 -18.40625 9.113281 -19.664062 9.625 -20.96875 C 10.113281 -22.207031 10.835938 -23.171875 11.796875 -23.859375 C 12.753906 -24.546875 13.863281 -24.941406 15.125 -25.046875 C 16.394531 -25.148438 17.710938 -24.929688 19.078125 -24.390625 C 20.003906 -24.023438 20.800781 -23.609375 21.46875 -23.140625 C 22.132812 -22.679688 22.710938 -22.179688 23.203125 -21.640625 L 21.265625 -16.71875 C 21.285156 -17.925781 21 -18.988281 20.40625 -19.90625 C 19.820312 -20.832031 19.046875 -21.484375 18.078125 -21.859375 C 16.867188 -22.335938 15.8125 -22.390625 14.90625 -22.015625 C 14 -21.648438 13.335938 -20.941406 12.921875 -19.890625 Z M 12.921875 -19.890625 "/></g></g></g><g fill="#ffffff" fill-opacity="1"><g transform="translate(140.818351, 352.426621)"><g/></g></g><g fill="#ffffff" fill-opacity="1"><g transform="translate(152.270678, 355.661278)"><g><path d="M 16.140625 -17.03125 L 16.375 -17 L 17.875 -26.796875 C 18.382812 -26.835938 18.960938 -26.847656 19.609375 -26.828125 C 20.253906 -26.816406 20.953125 -26.78125 21.703125 -26.71875 L 17.234375 2.625 C 16.453125 2.5 15.75 2.347656 15.125 2.171875 C 14.5 2.003906 13.96875 1.859375 13.53125 1.734375 L 15.515625 -11.328125 C 15.191406 -12.316406 14.703125 -13.265625 14.046875 -14.171875 C 13.390625 -15.078125 12.679688 -16.003906 11.921875 -16.953125 C 11.160156 -17.898438 10.445312 -18.882812 9.78125 -19.90625 L 9.5 -19.9375 L 6.328125 0.96875 C 5.546875 0.84375 4.914062 0.71875 4.4375 0.59375 C 3.96875 0.476562 3.484375 0.363281 2.984375 0.25 L 6.5 -22.859375 C 6.65625 -23.910156 6.691406 -24.863281 6.609375 -25.71875 C 6.535156 -26.582031 6.328125 -27.335938 5.984375 -27.984375 L 10.796875 -28.375 L 10.59375 -27.0625 C 10.59375 -25.84375 10.878906 -24.675781 11.453125 -23.5625 C 12.035156 -22.457031 12.753906 -21.375 13.609375 -20.3125 C 14.460938 -19.257812 15.304688 -18.164062 16.140625 -17.03125 Z M 16.140625 -17.03125 "/></g></g></g><g fill="#ffffff" fill-opacity="1"><g transform="translate(177.344395, 359.011341)"><g><path d="M 5.296875 -29.734375 L 5.46875 -11.171875 C 5.488281 -8.929688 5.644531 -7.207031 5.9375 -6 C 6.226562 -4.800781 6.65625 -3.976562 7.21875 -3.53125 C 7.789062 -3.082031 8.492188 -2.835938 9.328125 -2.796875 C 10.753906 -2.816406 11.734375 -3.238281 12.265625 -4.0625 C 12.804688 -4.882812 13.070312 -5.953125 13.0625 -7.265625 L 12.828125 -29.3125 C 13.847656 -29.53125 15.113281 -29.707031 16.625 -29.84375 L 16.828125 -3.71875 C 16.835938 -2.25 17.097656 -1.0625 17.609375 -0.15625 L 13.359375 -0.125 C 13.359375 -0.125 13.34375 -0.273438 13.3125 -0.578125 C 13.289062 -0.890625 13.265625 -1.273438 13.234375 -1.734375 C 13.203125 -2.191406 13.164062 -2.644531 13.125 -3.09375 L 12.828125 -3.09375 C 12.359375 -2.070312 11.753906 -1.285156 11.015625 -0.734375 C 10.273438 -0.191406 9.382812 0.0820312 8.34375 0.09375 C 5.925781 -0.0195312 4.207031 -0.976562 3.1875 -2.78125 C 2.164062 -4.582031 1.640625 -7.367188 1.609375 -11.140625 L 1.4375 -29.21875 C 1.925781 -29.332031 2.507812 -29.429688 3.1875 -29.515625 C 3.875 -29.609375 4.578125 -29.679688 5.296875 -29.734375 Z M 5.296875 -29.734375 "/></g></g></g><g fill="#ffffff" fill-opacity="1"><g transform="translate(201.94883, 358.250422)"><g><path d="M 2.78125 -30.453125 C 4.03125 -30.640625 5.289062 -30.769531 6.5625 -30.84375 C 7.84375 -30.914062 8.929688 -30.890625 9.828125 -30.765625 L 10.34375 -27.328125 C 9.707031 -27.628906 8.878906 -27.804688 7.859375 -27.859375 C 6.847656 -27.910156 5.925781 -27.894531 5.09375 -27.8125 L 9.125 -1.390625 C 7.644531 -1.285156 6.378906 -1.253906 5.328125 -1.296875 L 1.375 -27.21875 C 0.550781 -27.050781 -0.332031 -26.789062 -1.28125 -26.4375 C -2.238281 -26.082031 -2.972656 -25.664062 -3.484375 -25.1875 L -4.015625 -28.625 C -3.203125 -29.007812 -2.171875 -29.351562 -0.921875 -29.65625 C 0.316406 -29.96875 1.550781 -30.234375 2.78125 -30.453125 Z M 2.78125 -30.453125 "/></g></g></g><g fill="#ffffff" fill-opacity="1"><g transform="translate(221.666979, 354.996105)"><g><path d="M 16.453125 -4.90625 L 11.609375 -3.46875 C 11.421875 -4.5625 10.96875 -5.757812 10.25 -7.0625 L 3.484375 -18.953125 L 1.015625 -18.21875 L 5.921875 -1.765625 C 5.148438 -1.578125 4.445312 -1.414062 3.8125 -1.28125 C 3.175781 -1.15625 2.632812 -1.0625 2.1875 -1 L -6.03125 -28.53125 C -5.289062 -28.945312 -4.34375 -29.382812 -3.1875 -29.84375 C -2.039062 -30.3125 -0.835938 -30.734375 0.421875 -31.109375 C 2.628906 -31.765625 4.535156 -31.800781 6.140625 -31.21875 C 7.742188 -30.632812 8.820312 -29.414062 9.375 -27.5625 C 9.6875 -26.507812 9.703125 -25.535156 9.421875 -24.640625 C 9.148438 -23.742188 8.726562 -22.984375 8.15625 -22.359375 C 7.582031 -21.742188 7 -21.296875 6.40625 -21.015625 L 13.890625 -7.84375 C 14.296875 -7.175781 14.707031 -6.597656 15.125 -6.109375 C 15.539062 -5.628906 15.984375 -5.226562 16.453125 -4.90625 Z M 0.1875 -20.96875 L 3.140625 -21.859375 C 4.222656 -22.171875 5.015625 -22.710938 5.515625 -23.484375 C 6.023438 -24.253906 6.125 -25.164062 5.8125 -26.21875 C 5.488281 -27.289062 4.957031 -28 4.21875 -28.34375 C 3.476562 -28.6875 2.566406 -28.691406 1.484375 -28.359375 C 0.742188 -28.140625 0.128906 -27.929688 -0.359375 -27.734375 C -0.859375 -27.546875 -1.289062 -27.351562 -1.65625 -27.15625 Z M 0.1875 -20.96875 "/></g></g></g><g fill="#ffffff" fill-opacity="1"><g transform="translate(243.787421, 347.787514)"><g><path d="M -6.109375 -29.703125 L 5.671875 -2.453125 C 4.921875 -2.179688 4.238281 -1.941406 3.625 -1.734375 C 3.007812 -1.523438 2.484375 -1.363281 2.046875 -1.25 L -9.390625 -27.75 C -8.546875 -28.34375 -7.453125 -28.992188 -6.109375 -29.703125 Z M -6.109375 -29.703125 "/></g></g></g><g fill="#ffffff" fill-opacity="1"><g transform="translate(256.180711, 342.319281)"><g><path d="M -8.21875 -29.46875 C -7.101562 -30.09375 -5.957031 -30.660156 -4.78125 -31.171875 C -3.613281 -31.691406 -2.597656 -32.050781 -1.734375 -32.25 L -0.03125 -29.21875 C -0.71875 -29.28125 -1.546875 -29.15625 -2.515625 -28.84375 C -3.492188 -28.53125 -4.351562 -28.191406 -5.09375 -27.828125 L 8.046875 -4.546875 C 6.703125 -3.921875 5.53125 -3.4375 4.53125 -3.09375 L -8.359375 -25.9375 C -9.078125 -25.476562 -9.816406 -24.914062 -10.578125 -24.25 C -11.335938 -23.582031 -11.878906 -22.941406 -12.203125 -22.328125 L -13.90625 -25.34375 C -13.28125 -25.976562 -12.441406 -26.660156 -11.390625 -27.390625 C -10.335938 -28.128906 -9.28125 -28.820312 -8.21875 -29.46875 Z M -8.21875 -29.46875 "/></g></g></g><g fill="#ffffff" fill-opacity="1"><g transform="translate(273.096983, 332.283604)"><g><path d="M -12.234375 -27.734375 L 5.015625 -3.578125 C 4.359375 -3.148438 3.75 -2.769531 3.1875 -2.4375 C 2.625 -2.113281 2.140625 -1.851562 1.734375 -1.65625 L -15.03125 -25.140625 C -14.320312 -25.898438 -13.390625 -26.765625 -12.234375 -27.734375 Z M -12.234375 -27.734375 "/></g></g></g><g fill="#ffffff" fill-opacity="1"><g transform="translate(284.767936, 324.425266)"><g><path d="M 8.59375 -12.25 C 9.664062 -13.300781 10.414062 -14.476562 10.84375 -15.78125 C 11.269531 -17.09375 11.410156 -18.453125 11.265625 -19.859375 C 11.117188 -21.265625 10.707031 -22.660156 10.03125 -24.046875 C 9.351562 -25.441406 8.425781 -26.738281 7.25 -27.9375 C 5.675781 -29.53125 3.957031 -30.703125 2.09375 -31.453125 C 0.226562 -32.210938 -1.613281 -32.453125 -3.4375 -32.171875 C -5.257812 -31.898438 -6.914062 -31.035156 -8.40625 -29.578125 C -9.882812 -28.117188 -10.78125 -26.476562 -11.09375 -24.65625 C -11.40625 -22.84375 -11.195312 -21 -10.46875 -19.125 C -9.75 -17.25 -8.601562 -15.515625 -7.03125 -13.921875 C -5.851562 -12.722656 -4.578125 -11.769531 -3.203125 -11.0625 C -1.835938 -10.351562 -0.453125 -9.910156 0.953125 -9.734375 C 2.359375 -9.554688 3.71875 -9.671875 5.03125 -10.078125 C 6.34375 -10.484375 7.53125 -11.207031 8.59375 -12.25 Z M -10.453125 -31.671875 C -8.960938 -33.128906 -7.328125 -34.179688 -5.546875 -34.828125 C -3.773438 -35.472656 -1.960938 -35.738281 -0.109375 -35.625 C 1.734375 -35.507812 3.535156 -35.039062 5.296875 -34.21875 C 7.054688 -33.394531 8.664062 -32.238281 10.125 -30.75 C 11.582031 -29.257812 12.703125 -27.628906 13.484375 -25.859375 C 14.273438 -24.085938 14.710938 -22.273438 14.796875 -20.421875 C 14.878906 -18.566406 14.578125 -16.757812 13.890625 -15 C 13.210938 -13.238281 12.128906 -11.628906 10.640625 -10.171875 C 9.160156 -8.710938 7.53125 -7.660156 5.75 -7.015625 C 3.976562 -6.367188 2.164062 -6.101562 0.3125 -6.21875 C -1.539062 -6.332031 -3.34375 -6.796875 -5.09375 -7.609375 C -6.851562 -8.429688 -8.460938 -9.585938 -9.921875 -11.078125 C -11.378906 -12.566406 -12.503906 -14.195312 -13.296875 -15.96875 C -14.085938 -17.75 -14.519531 -19.566406 -14.59375 -21.421875 C -14.675781 -23.273438 -14.375 -25.082031 -13.6875 -26.84375 C -13.007812 -28.601562 -11.929688 -30.210938 -10.453125 -31.671875 Z M -10.453125 -31.671875 "/></g></g></g><g fill="#ffffff" fill-opacity="1"><g transform="translate(309.152404, 299.027744)"><g><path d="M -21.3125 -21.40625 L -6.015625 -10.875 C -4.171875 -9.613281 -2.671875 -8.753906 -1.515625 -8.296875 C -0.359375 -7.847656 0.5625 -7.726562 1.25 -7.9375 C 1.945312 -8.15625 2.550781 -8.597656 3.0625 -9.265625 C 3.875 -10.429688 4.09375 -11.46875 3.71875 -12.375 C 3.34375 -13.289062 2.617188 -14.125 1.546875 -14.875 L -16.640625 -27.328125 C -16.234375 -28.285156 -15.648438 -29.425781 -14.890625 -30.75 L 6.609375 -15.90625 C 7.816406 -15.070312 8.941406 -14.609375 9.984375 -14.515625 L 7.5625 -11 C 7.5625 -11 7.425781 -11.078125 7.15625 -11.234375 C 6.894531 -11.390625 6.566406 -11.585938 6.171875 -11.828125 C 5.773438 -12.066406 5.382812 -12.300781 5 -12.53125 L 4.828125 -12.28125 C 5.390625 -11.3125 5.679688 -10.363281 5.703125 -9.4375 C 5.734375 -8.519531 5.457031 -7.632812 4.875 -6.78125 C 3.382812 -4.863281 1.613281 -4.003906 -0.4375 -4.203125 C -2.5 -4.398438 -5.085938 -5.566406 -8.203125 -7.703125 L -23.09375 -17.953125 C -22.914062 -18.421875 -22.660156 -18.957031 -22.328125 -19.5625 C -22.003906 -20.164062 -21.664062 -20.78125 -21.3125 -21.40625 Z M -21.3125 -21.40625 "/></g></g></g><g fill="#ffffff" fill-opacity="1"><g transform="translate(322.720909, 278.41338)"><g><path d="M -18.8125 -14.4375 C -18.09375 -14.09375 -17.289062 -14 -16.40625 -14.15625 C -15.519531 -14.320312 -14.578125 -14.632812 -13.578125 -15.09375 C -12.585938 -15.550781 -11.550781 -16.03125 -10.46875 -16.53125 C -9.363281 -17.050781 -8.207031 -17.503906 -7 -17.890625 C -5.789062 -18.273438 -4.546875 -18.46875 -3.265625 -18.46875 C -1.984375 -18.46875 -0.671875 -18.140625 0.671875 -17.484375 C 1.878906 -16.898438 2.820312 -16.09375 3.5 -15.0625 C 4.175781 -14.039062 4.546875 -12.878906 4.609375 -11.578125 C 4.671875 -10.285156 4.363281 -8.945312 3.6875 -7.5625 C 3.1875 -6.550781 2.585938 -5.613281 1.890625 -4.75 C 1.203125 -3.894531 0.460938 -3.222656 -0.328125 -2.734375 L -5.4375 -5.234375 C -4.625 -5.148438 -3.785156 -5.257812 -2.921875 -5.5625 C -2.054688 -5.875 -1.265625 -6.3125 -0.546875 -6.875 C 0.171875 -7.445312 0.703125 -8.09375 1.046875 -8.8125 C 1.578125 -9.90625 1.738281 -10.914062 1.53125 -11.84375 C 1.320312 -12.78125 0.660156 -13.519531 -0.453125 -14.0625 C -1.335938 -14.5 -2.269531 -14.644531 -3.25 -14.5 C -4.238281 -14.363281 -5.265625 -14.0625 -6.328125 -13.59375 C -7.390625 -13.132812 -8.476562 -12.65625 -9.59375 -12.15625 C -10.664062 -11.65625 -11.769531 -11.21875 -12.90625 -10.84375 C -14.039062 -10.476562 -15.21875 -10.300781 -16.4375 -10.3125 C -17.65625 -10.320312 -18.890625 -10.632812 -20.140625 -11.25 C -21.335938 -11.832031 -22.242188 -12.625 -22.859375 -13.625 C -23.484375 -14.632812 -23.796875 -15.769531 -23.796875 -17.03125 C -23.796875 -18.300781 -23.472656 -19.597656 -22.828125 -20.921875 C -22.390625 -21.816406 -21.910156 -22.578125 -21.390625 -23.203125 C -20.867188 -23.835938 -20.320312 -24.382812 -19.75 -24.84375 L -15 -22.53125 C -16.195312 -22.632812 -17.28125 -22.425781 -18.25 -21.90625 C -19.21875 -21.394531 -19.929688 -20.671875 -20.390625 -19.734375 C -20.960938 -18.566406 -21.097656 -17.515625 -20.796875 -16.578125 C -20.492188 -15.648438 -19.832031 -14.9375 -18.8125 -14.4375 Z M -18.8125 -14.4375 "/></g></g></g></svg>