<svg xmlns="http://www.w3.org/2000/svg" xmlns:xlink="http://www.w3.org/1999/xlink" width="500" zoomAndPan="magnify" viewBox="0 0 375 374.999991" height="500" preserveAspectRatio="xMidYMid meet" version="1.0"><defs><clipPath id="b0c96aa476"><path d="M 187.5 0 C 83.945312 0 0 83.945312 0 187.5 C 0 291.054688 83.945312 375 187.5 375 C 291.054688 375 375 291.054688 375 187.5 C 375 83.945312 291.054688 0 187.5 0 Z M 187.5 0 " clip-rule="nonzero"/></clipPath></defs><g clip-path="url(#b0c96aa476)"><rect x="-37.5" width="450" fill="#f2ebd7" y="-37.499999" height="449.999989" fill-opacity="1"/></g><path fill="#ff3131" d="M 174.632812 74.289062 C 174.242188 74.375 173.8125 74.414062 173.355469 74.347656 C 164.046875 73.011719 153.664062 73.832031 143.808594 75.371094 C 144.527344 75.515625 145.257812 75.644531 145.992188 75.800781 C 155.457031 77.847656 164.152344 84.679688 173.601562 85.761719 C 174.046875 82.070312 174.417969 78.207031 174.632812 74.289062 Z M 242.242188 77.476562 C 243.382812 77.222656 244.535156 76.941406 245.675781 76.636719 C 230.398438 72.886719 214.398438 73.402344 198.722656 73.597656 C 200.339844 78.011719 201.589844 82.496094 202.601562 87.15625 C 215.648438 86.386719 229.539062 80.410156 242.242188 77.476562 Z M 296.828125 73.859375 C 303.710938 73.683594 310.457031 73.703125 317.484375 73.722656 C 310.007812 71.441406 300.972656 71.765625 293.941406 71.9375 C 282.144531 72.222656 271.292969 76.015625 259.886719 78.707031 C 249.125 81.230469 238.273438 83.558594 227.5625 86.320312 C 227.277344 86.445312 227.015625 86.554688 226.742188 86.691406 C 225.914062 87.070312 225.074219 87.460938 224.167969 87.898438 C 222.355469 88.667969 220.375 89.535156 218.28125 90.441406 C 216.191406 91.242188 214.332031 92.257812 212.585938 93.074219 C 210.859375 93.914062 209.484375 94.820312 208.140625 95.464844 C 205.644531 97.128906 203.9375 98.027344 203.617188 97.648438 C 203.296875 97.277344 204.347656 95.679688 206.484375 93.503906 C 207.242188 92.878906 208.167969 92.148438 209.164062 91.40625 C 206.621094 91.925781 204.046875 92.316406 201.433594 92.421875 C 200.945312 92.421875 200.535156 92.316406 200.183594 92.148438 C 200.125 94.878906 199.5625 97.402344 198.285156 99.265625 C 197.25 100.816406 195.914062 101.585938 194.902344 101.828125 C 193.957031 102.0625 193.457031 101.886719 193.371094 101.703125 C 193.242188 101.441406 193.722656 101.097656 194.296875 100.53125 C 194.84375 100.035156 195.59375 99.21875 196.050781 98.007812 C 197.054688 95.640625 196.910156 91.542969 196.160156 87.070312 C 195.574219 83.910156 194.902344 80.929688 194.296875 78.382812 C 192.230469 73.011719 189.96875 67.707031 188.847656 62.101562 C 187.09375 53.242188 189.167969 45.304688 189.421875 36.433594 C 186.984375 34.023438 178.125 42.839844 177.675781 45.539062 C 177.734375 45.683594 177.800781 45.839844 177.839844 46.015625 C 177.910156 46.25 177.996094 46.503906 178.066406 46.765625 L 178.144531 46.765625 L 178.25 46.785156 L 178.335938 46.765625 C 178.316406 46.765625 178.28125 46.765625 178.230469 46.765625 C 178.25 46.765625 178.296875 46.746094 178.335938 46.746094 C 179.070312 46.535156 180.132812 45.820312 180.929688 45.128906 C 181.769531 44.417969 182.5 43.707031 183.085938 43.101562 C 183.691406 42.496094 184.136719 41.933594 184.441406 41.660156 C 184.792969 41.375 185.007812 40.964844 185.257812 41.035156 C 185.503906 41.09375 185.804688 41.289062 185.824219 41.980469 C 185.84375 42.691406 185.667969 43.53125 185.257812 44.484375 C 184.832031 45.433594 184.207031 46.484375 183.300781 47.5 C 182.355469 48.511719 181.273438 49.613281 179.292969 50.257812 C 179.097656 50.304688 178.882812 50.34375 178.660156 50.363281 C 180.5625 61.410156 180.171875 73.488281 178.902344 84.640625 C 178.902344 86.535156 178.882812 88.589844 178.796875 90.746094 C 178.765625 91.320312 178.746094 91.925781 178.726562 92.507812 C 178.746094 92.917969 178.726562 93.542969 178.765625 94.019531 C 178.816406 95.015625 178.960938 95.941406 179.226562 96.722656 C 179.742188 98.25 180.6875 99.160156 181.945312 99.675781 C 184.441406 100.640625 186.59375 100.582031 186.625 101.136719 C 186.644531 101.402344 186.195312 101.671875 185.328125 101.957031 C 184.402344 102.191406 183.046875 102.453125 181.234375 102.132812 C 180.328125 101.957031 179.292969 101.617188 178.367188 100.882812 C 177.410156 100.144531 176.613281 99.109375 176.113281 97.949219 C 175.597656 96.800781 175.34375 95.550781 175.207031 94.324219 C 175.128906 93.679688 175.128906 93.132812 175.101562 92.382812 C 175.128906 91.953125 175.128906 91.496094 175.148438 91.066406 C 175.101562 91.066406 175.0625 91.066406 175.042969 91.066406 C 167.898438 90.714844 163.304688 87.65625 157.007812 84.789062 C 147.324219 80.371094 134.664062 77.867188 124.035156 78.511719 C 112.914062 79.203125 102.121094 82.222656 91.210938 84.292969 C 83.988281 85.675781 77.210938 86.882812 70.503906 88.804688 C 94.097656 88.484375 117.007812 78.988281 140.40625 85.179688 C 145.0625 86.40625 149.871094 87.050781 154.355469 88.84375 C 156.507812 89.710938 158.675781 90.785156 160.292969 92.488281 C 161.492188 93.765625 161.882812 95.511719 162.875 96.90625 C 164.261719 98.855469 165.402344 98.808594 167.605469 99.265625 C 169.796875 99.734375 171.027344 100.40625 170.988281 100.882812 C 170.949219 101.402344 169.523438 101.636719 167.378906 101.828125 C 163.089844 102.257812 159.425781 103.554688 155.203125 104.5 C 151.964844 105.210938 148.769531 106.207031 145.667969 107.347656 C 139.652344 109.589844 133.375 112.484375 128.695312 116.949219 C 126.277344 119.25 124.074219 122.058594 122.183594 125.121094 L 123.089844 124.339844 C 123.800781 123.734375 124.550781 123.113281 125.246094 122.730469 C 132.898438 118.003906 140.386719 114.640625 145.621094 112.328125 C 150.933594 109.941406 154.296875 108.488281 154.550781 108.964844 C 154.765625 109.375 151.898438 111.597656 146.859375 114.601562 C 141.71875 117.574219 134.644531 121.191406 127.164062 125.832031 C 126.386719 126.242188 125.886719 126.71875 125.371094 127.167969 L 124.570312 127.8125 C 124.339844 128.074219 124.125 128.355469 123.878906 128.609375 C 122.894531 129.605469 122.328125 130.882812 121.636719 132.023438 L 121.578125 132.109375 L 121.53125 132.238281 C 121.1875 132.988281 120.78125 133.640625 120.476562 134.441406 C 120.175781 135.257812 119.871094 136.078125 119.570312 136.847656 C 119.269531 137.695312 118.984375 138.496094 118.539062 139.316406 C 118.363281 139.65625 118.167969 140.027344 117.972656 140.367188 C 126.949219 133.269531 135.226562 125.792969 146.222656 121.21875 C 154.511719 117.769531 162.445312 113.664062 170.683594 110.175781 C 176.164062 107.824219 181.574219 108.964844 187.289062 106.8125 C 187.941406 106.8125 188.730469 106.597656 189.558594 107.183594 C 199.191406 114.144531 210.199219 115.78125 221.339844 116.921875 C 218.453125 116.191406 215.675781 115.4375 213.121094 114.699219 C 210.148438 113.839844 207.457031 112.867188 205.234375 112.09375 C 200.898438 110.28125 198.332031 108.898438 198.488281 108.429688 C 198.65625 107.953125 201.519531 108.46875 206.054688 109.660156 C 208.34375 110.105469 210.96875 110.78125 213.988281 111.441406 C 216.984375 112.132812 220.289062 112.914062 223.757812 113.800781 C 227.210938 114.601562 230.574219 115.742188 233.488281 116.882812 C 235.710938 117.769531 237.757812 118.570312 239.589844 119.300781 C 242.886719 119.945312 246.171875 120.800781 249.339844 122.039062 C 263.269531 127.429688 277.652344 133.464844 291.132812 140.648438 C 288.179688 138 285.070312 135.472656 281.84375 132.910156 C 274.316406 126.914062 267.71875 121.105469 258.074219 118.824219 C 250.246094 116.96875 242.351562 115.722656 234.753906 113.003906 C 231.304688 111.773438 228.292969 110.019531 225.113281 108.554688 C 224.8125 108.519531 224.46875 108.46875 224.128906 108.410156 C 223.542969 108.273438 222.902344 108.128906 222.226562 107.933594 C 221.605469 107.757812 220.960938 107.589844 220.269531 107.367188 C 219.613281 107.132812 218.824219 106.957031 218.027344 106.761719 C 217.617188 106.65625 217.207031 106.546875 216.796875 106.441406 L 216.640625 106.402344 C 216.621094 106.402344 216.621094 106.507812 216.621094 106.507812 L 216.339844 106.421875 L 215.714844 106.3125 C 214.027344 106.082031 212.441406 105.796875 210.96875 105.496094 C 209.523438 105.171875 208.121094 105.066406 206.980469 104.804688 C 204.71875 104.355469 203.316406 103.808594 203.335938 103.3125 C 203.355469 102.796875 204.804688 102.433594 207.136719 102.21875 C 208.296875 102.152344 209.632812 101.976562 211.191406 102.132812 C 215.84375 102.5625 220.160156 98.574219 223.582031 95.960938 C 228.242188 92.402344 232.902344 88.628906 238.449219 86.601562 C 248.628906 82.847656 259.730469 83.929688 269.785156 80.761719 C 279.015625 77.867188 286.953125 74.113281 296.828125 73.859375 Z M 327.90625 231.355469 C 334.847656 205.089844 333.621094 175.71875 324.171875 150.183594 C 323.375 148.019531 322.515625 145.867188 321.589844 143.75 C 316.109375 131.117188 308.476562 119.535156 299.195312 109.335938 C 294.566406 104.246094 289.535156 99.5 284.25 95.054688 C 281.539062 92.773438 278.625 90.746094 275.925781 88.433594 C 273.089844 85.996094 271.082031 85.742188 267.367188 86.386719 C 257.664062 88.113281 246.257812 87.460938 237.457031 92.742188 C 232.667969 95.621094 228.332031 99.089844 223.808594 102.308594 C 231.332031 104.734375 238.011719 109.230469 245.976562 110.925781 C 253.738281 112.574219 262.558594 113.46875 269.570312 117.488281 C 283.199219 125.316406 297.453125 137.023438 306.402344 149.988281 C 308.105469 152.464844 304.617188 154.816406 302.539062 153.21875 C 292.578125 146.898438 282.253906 141.917969 271.3125 137.5 C 261.4375 133.515625 251.542969 127.019531 241.210938 124.660156 C 223.066406 120.566406 203.8125 123.394531 187.65625 112.222656 C 179.246094 114.054688 171.785156 115.265625 163.800781 119.230469 C 157.746094 122.273438 151.3125 124.390625 145.230469 127.324219 C 132.75 133.339844 123.519531 143.410156 112.171875 151.109375 C 109.644531 152.816406 107.277344 149.230469 108.964844 147.183594 C 110.464844 135.902344 115.945312 120.371094 125.03125 113.273438 C 133.785156 106.460938 145.835938 100.960938 157.007812 98.984375 C 158 92.8125 143.875 91.457031 140.277344 90.480469 C 129.386719 87.617188 120.78125 87.1875 109.695312 89.410156 C 104.964844 90.355469 100.851562 91.046875 96.5625 93.523438 C 92.527344 95.835938 88.949219 98.828125 85.324219 101.703125 C 64.683594 117.933594 50.1875 139.9375 47.476562 166.417969 C 44.707031 193.335938 44.007812 225.195312 57.714844 249.34375 C 71.371094 273.394531 92.050781 296.683594 117.523438 308.390625 C 141.828125 319.5625 169.261719 324.671875 195.964844 323.171875 C 252.421875 320.023438 312.445312 289.917969 327.90625 231.355469 Z M 330.402344 148.460938 C 346.644531 195.878906 339.292969 251.15625 302.113281 286.828125 C 262.597656 324.742188 202.386719 337.601562 149.570312 325.773438 C 124.511719 320.1875 101 309.972656 82.652344 291.613281 C 63.738281 272.699219 46.09375 250.121094 41.734375 223.058594 C 37.835938 198.902344 37.679688 169.703125 44.816406 146.128906 C 51.71875 123.355469 67.121094 106.832031 85.839844 93.222656 C 76.410156 94.214844 66.945312 94.429688 57.605469 93.132812 C 57.136719 93.074219 56.765625 92.898438 56.484375 92.683594 C 54.933594 91.691406 54.378906 89.320312 56.445312 88.394531 C 66.175781 84.144531 75.398438 82.050781 85.800781 80.070312 C 96.210938 78.101562 106.652344 75.148438 117.203125 73.9375 C 119.890625 73.636719 122.828125 73.832031 125.195312 72.886719 C 132.417969 69.949219 140.792969 69.132812 148.574219 68.226562 C 157.269531 67.210938 166.132812 66.871094 174.828125 68.078125 C 174.886719 60.933594 174.332031 53.796875 172.800781 47.371094 C 172.800781 47.304688 172.800781 47.246094 172.78125 47.175781 C 172.5 46.785156 172.363281 46.269531 172.429688 45.605469 C 173.335938 38.703125 189.453125 23.390625 194.257812 34.328125 C 194.382812 34.667969 194.472656 34.992188 194.472656 35.3125 C 194.558594 35.574219 194.597656 35.859375 194.597656 36.179688 C 194.296875 47.519531 192.230469 56.449219 196.179688 67.171875 C 210.429688 67.027344 224.8125 66.175781 238.96875 68.4375 C 242.503906 69.003906 245.996094 69.753906 249.425781 70.796875 C 252.3125 71.65625 255.570312 73.703125 258.523438 73.246094 C 266.480469 71.996094 274.121094 68.789062 282.203125 67.6875 C 296.292969 65.789062 317.484375 64.277344 329.175781 74.238281 C 330.773438 75.605469 329.914062 77.546875 328.425781 78.277344 C 328.171875 78.667969 327.820312 78.949219 327.34375 78.949219 C 316.558594 78.949219 306.808594 78.433594 296.828125 79.027344 C 290.636719 79.398438 285.070312 81.25 279.492188 83.0625 C 302.375 100.339844 320.898438 120.722656 330.402344 148.460938 " fill-opacity="1" fill-rule="nonzero"/><path fill="#ff3131" d="M 324.417969 162.839844 C 325.363281 168.054688 325.488281 172.820312 325.292969 176.234375 C 325.078125 179.664062 324.601562 181.753906 324.113281 181.753906 C 323.011719 181.753906 322.605469 173.386719 320.847656 163.511719 C 319.921875 158.589844 318.65625 154.28125 317.398438 151.304688 C 316.21875 148.371094 315.046875 146.488281 315.488281 146.167969 C 315.828125 145.886719 317.640625 147.035156 319.667969 150.097656 C 321.675781 153.03125 323.460938 157.644531 324.417969 162.839844 " fill-opacity="1" fill-rule="nonzero"/><path fill="#ff3131" d="M 319.796875 208.171875 C 320.1875 208.191406 320.441406 214.097656 318.636719 223.4375 C 318.390625 224.609375 318.140625 225.835938 317.875 227.085938 C 317.574219 228.363281 317.183594 229.648438 316.824219 230.996094 C 316.128906 233.703125 315.046875 236.511719 314.015625 239.484375 C 311.703125 245.335938 308.710938 251.613281 304.898438 257.804688 C 300.988281 263.964844 296.613281 269.375 292.273438 273.949219 C 290.011719 276.152344 287.945312 278.304688 285.722656 280.050781 C 284.640625 280.9375 283.628906 281.84375 282.59375 282.625 C 281.539062 283.375 280.527344 284.105469 279.550781 284.800781 C 271.597656 290.238281 266.078125 292.0625 265.882812 291.742188 C 265.550781 291.203125 270.816406 288.464844 278.003906 282.734375 C 278.910156 282.019531 279.855469 281.242188 280.828125 280.441406 C 281.773438 279.621094 282.71875 278.714844 283.714844 277.789062 C 285.761719 276.023438 287.703125 273.839844 289.835938 271.667969 C 293.894531 267.113281 298.035156 261.8125 301.808594 255.882812 C 305.523438 249.886719 308.496094 243.863281 310.914062 238.238281 C 311.988281 235.390625 313.128906 232.71875 313.925781 230.105469 C 314.367188 228.8125 314.773438 227.5625 315.164062 226.355469 C 315.507812 225.144531 315.828125 223.984375 316.128906 222.863281 C 318.546875 213.953125 319.191406 208.171875 319.796875 208.171875 " fill-opacity="1" fill-rule="nonzero"/><path fill="#ff3131" d="M 286.277344 109.679688 C 288.5 112.574219 289.429688 114.640625 289.066406 114.894531 C 288.628906 115.226562 286.992188 113.734375 284.425781 111.472656 C 281.8125 109.230469 278.070312 106.382812 273.664062 103.554688 C 264.753906 98.058594 256.847656 94.34375 257.257812 93.328125 C 257.449219 92.878906 259.625 93.269531 262.988281 94.410156 C 266.382812 95.601562 270.925781 97.558594 275.605469 100.476562 C 280.246094 103.449219 284.015625 106.851562 286.277344 109.679688 " fill-opacity="1" fill-rule="nonzero"/><path fill="#ff3131" d="M 233.527344 304.6875 C 233.683594 305.078125 228.507812 307.660156 219.46875 309.707031 C 214.964844 310.828125 209.484375 311.539062 203.382812 312.105469 C 197.28125 312.515625 190.542969 312.625 183.496094 312.164062 C 176.445312 311.648438 169.777344 310.703125 163.78125 309.472656 C 157.804688 308.136719 152.484375 306.667969 148.164062 305.007812 C 139.410156 301.773438 134.691406 298.585938 134.867188 298.214844 C 135.101562 297.679688 140.316406 300.066406 148.964844 302.570312 C 153.300781 303.886719 158.566406 305.046875 164.425781 306.179688 C 170.3125 307.210938 176.855469 308.03125 183.730469 308.546875 C 190.632812 308.976562 197.210938 308.976562 203.1875 308.761719 C 209.136719 308.390625 214.527344 307.964844 218.992188 307.183594 C 227.921875 305.828125 233.332031 304.121094 233.527344 304.6875 " fill-opacity="1" fill-rule="nonzero"/><path fill="#ff3131" d="M 178.230469 46.417969 C 178.210938 46.417969 178.210938 46.417969 178.210938 46.445312 L 178.210938 46.417969 L 178.230469 46.417969 " fill-opacity="1" fill-rule="nonzero"/><path fill="#ff3131" d="M 178.210938 46.445312 C 178.210938 46.484375 178.28125 46.59375 178.171875 46.59375 L 178.210938 46.445312 " fill-opacity="1" fill-rule="nonzero"/><path fill="#ff3131" d="M 178.171875 46.59375 L 178.171875 46.621094 L 178.085938 46.699219 L 178.085938 46.59375 C 178.125 46.621094 178.144531 46.59375 178.171875 46.59375 " fill-opacity="1" fill-rule="nonzero"/><path fill="#ff3131" d="M 116.527344 94.410156 C 116.722656 94.859375 114.910156 96.136719 111.722656 97.6875 C 108.503906 99.238281 103.933594 100.902344 99.058594 102.757812 C 94.144531 104.609375 90.128906 106.871094 87.195312 108.488281 C 84.289062 110.410156 82.347656 111.53125 82.027344 111.121094 C 81.726562 110.761719 83.011719 108.964844 85.554688 106.507812 C 88.34375 104.128906 92.613281 101.285156 97.722656 99.371094 C 102.8125 97.421875 107.453125 96.175781 110.816406 95.296875 C 114.160156 94.363281 116.316406 93.933594 116.527344 94.410156 " fill-opacity="1" fill-rule="nonzero"/><path fill="#ff3131" d="M 75.164062 254.566406 C 77.511719 258.039062 79.152344 260.085938 78.789062 260.476562 C 78.488281 260.816406 76.140625 259.375 73.15625 256.175781 C 70.183594 253.007812 66.644531 248.113281 63.667969 242.1875 C 60.714844 236.230469 58.902344 230.410156 58.386719 226.050781 C 57.78125 221.605469 58.386719 218.984375 58.835938 218.953125 C 59.378906 218.953125 59.722656 221.636719 60.910156 225.515625 C 62.03125 229.503906 64.097656 234.855469 66.925781 240.546875 C 69.773438 246.210938 72.8125 251.136719 75.164062 254.566406 " fill-opacity="1" fill-rule="nonzero"/><path fill="#ff3131" d="M 70.164062 130.53125 C 70.609375 130.792969 69.148438 134.175781 66.644531 139.5 C 64.421875 144.871094 61.425781 152.320312 59.554688 160.96875 C 57.742188 169.632812 57.089844 177.695312 56.503906 183.566406 C 56.035156 189.433594 55.578125 193.082031 55.0625 193.082031 C 54.5625 193.082031 54.136719 189.414062 53.941406 183.457031 C 53.882812 177.53125 54.117188 169.226562 55.988281 160.207031 C 57.957031 151.1875 61.464844 143.535156 64.382812 138.273438 C 67.492188 133.210938 69.753906 130.296875 70.164062 130.53125 " fill-opacity="1" fill-rule="nonzero"/></svg>