<svg xmlns="http://www.w3.org/2000/svg" xmlns:xlink="http://www.w3.org/1999/xlink" width="667" zoomAndPan="magnify" viewBox="0 0 500.25 52.499999" height="70" preserveAspectRatio="xMidYMid meet" version="1.0"><defs><clipPath id="ccea4de41e"><path d="M 434.890625 25.941406 L 454.636719 25.941406 L 454.636719 49.722656 L 434.890625 49.722656 Z M 434.890625 25.941406 " clip-rule="nonzero"/></clipPath><clipPath id="f9c1ac584d"><path d="M 2 1 L 497 1 L 497 52.003906 L 2 52.003906 Z M 2 1 " clip-rule="nonzero"/></clipPath><clipPath id="1aa0835d60"><path d="M 388 47 L 419 47 L 419 52.003906 L 388 52.003906 Z M 388 47 " clip-rule="nonzero"/></clipPath><clipPath id="b1d0635799"><path d="M 456 45 L 481 45 L 481 52.003906 L 456 52.003906 Z M 456 45 " clip-rule="nonzero"/></clipPath></defs><g clip-path="url(#ccea4de41e)"><path fill="#228600" d="M 434.890625 25.941406 L 454.636719 25.941406 L 454.636719 49.699219 L 434.890625 49.699219 Z M 434.890625 25.941406 " fill-opacity="1" fill-rule="nonzero"/></g><g clip-path="url(#f9c1ac584d)"><path fill="#228600" d="M 493.8125 48.835938 C 490.0625 42.769531 481.625 39.738281 475.285156 42.9375 C 476.109375 34.167969 472.96875 24.960938 466.570312 18.894531 C 460.171875 12.828125 450.523438 10.179688 442.085938 12.660156 C 433.59375 15.199219 426.8125 22.972656 425.984375 31.742188 C 422.785156 29.316406 418.042969 29.589844 414.625 31.6875 C 414.570312 31.6875 414.570312 31.742188 414.515625 31.742188 C 411.039062 27.9375 406.296875 25.179688 401.167969 24.683594 C 395.875 24.1875 390.195312 26.394531 387.164062 30.859375 C 386.941406 31.191406 386.777344 31.464844 386.554688 31.796875 C 381.59375 26.835938 373.265625 24.902344 367.863281 29.261719 C 364.441406 21.761719 355.179688 17.515625 347.292969 19.832031 C 339.351562 22.148438 333.894531 30.804688 335.105469 38.910156 C 331.464844 33.78125 323.636719 33.394531 318.066406 36.265625 C 316.191406 37.257812 314.484375 38.523438 312.9375 39.957031 C 311.285156 39.1875 309.574219 38.910156 307.808594 38.910156 C 308.03125 33.011719 306.210938 27.109375 302.019531 22.972656 C 295.183594 16.246094 282.167969 16.523438 276.875 24.519531 C 278.417969 16.6875 274.503906 8.140625 267.609375 4.167969 C 260.71875 0.199219 251.34375 1.136719 245.332031 6.429688 C 239.375 11.667969 237.226562 20.824219 240.257812 28.15625 C 234.523438 23.085938 225.480469 21.980469 218.640625 25.566406 C 215.332031 27.332031 212.6875 30.085938 210.867188 33.339844 C 209.265625 28.597656 205.792969 24.464844 201.050781 23.085938 C 197.027344 21.925781 192.503906 22.972656 189.085938 25.457031 C 183.347656 25.179688 175.847656 26.667969 174.472656 31.851562 C 176.402344 24.738281 174.914062 16.523438 169.894531 11.117188 C 164.875 5.714844 156.273438 3.671875 149.65625 6.980469 C 143.039062 10.289062 139.621094 19.113281 142.875 25.785156 C 135.042969 22.089844 124.953125 24.132812 119.160156 30.527344 C 116.460938 33.5625 115.300781 36.59375 114.914062 39.847656 C 111.9375 36.980469 108.242188 34.832031 104.21875 34.058594 C 98.261719 32.953125 91.480469 35.160156 88.171875 40.289062 C 88.886719 34.003906 83.484375 27.882812 77.195312 27.109375 C 74.382812 26.722656 71.515625 27.332031 68.980469 28.597656 C 66.222656 24.132812 62.308594 20.382812 57.621094 17.902344 C 48.851562 13.324219 37.492188 13.820312 29.441406 19.609375 C 21.445312 25.457031 17.53125 36.648438 20.730469 46.023438 C 17.421875 42.769531 11.742188 42.660156 7.878906 45.308594 C 4.074219 47.953125 2.199219 52.863281 2.585938 57.496094 C 3.027344 62.125 5.5625 66.425781 9.039062 69.515625 C 6.0625 70.175781 4.351562 73.652344 4.957031 76.628906 C 5.5625 79.332031 7.714844 81.539062 10.25 82.804688 L 475.78125 82.804688 C 476.21875 82.640625 476.71875 82.476562 477.160156 82.308594 C 483.832031 79.71875 489.953125 75.359375 493.535156 69.183594 C 497.066406 63.007812 497.617188 54.902344 493.8125 48.835938 Z M 493.8125 48.835938 " fill-opacity="1" fill-rule="nonzero"/></g><path fill="#228600" d="M 37.328125 50.386719 C 37.1875 50.386719 37.070312 50.28125 37.054688 50.140625 C 36.835938 47.890625 38.066406 45.554688 40.046875 44.460938 C 41.933594 43.425781 44.386719 43.5625 46.160156 44.765625 C 47.308594 42.386719 49.578125 40.628906 52.179688 40.140625 C 54.878906 39.65625 57.769531 40.546875 59.695312 42.515625 C 59.800781 42.625 59.800781 42.800781 59.691406 42.90625 C 59.585938 43.011719 59.40625 43.007812 59.300781 42.902344 C 57.53125 41.085938 54.800781 40.222656 52.273438 40.683594 C 49.746094 41.15625 47.542969 42.921875 46.523438 45.292969 C 46.492188 45.371094 46.421875 45.429688 46.34375 45.449219 C 46.257812 45.464844 46.171875 45.449219 46.105469 45.402344 C 44.484375 44.136719 42.105469 43.957031 40.3125 44.945312 C 38.519531 45.933594 37.402344 48.046875 37.601562 50.085938 C 37.617188 50.234375 37.503906 50.371094 37.355469 50.386719 C 37.34375 50.386719 37.339844 50.386719 37.328125 50.386719 Z M 37.328125 50.386719 " fill-opacity="1" fill-rule="nonzero"/><path fill="#228600" d="M 119.816406 51.679688 C 119.800781 51.679688 119.785156 51.679688 119.765625 51.675781 C 119.617188 51.648438 119.515625 51.507812 119.546875 51.355469 C 119.773438 50.140625 119.039062 48.785156 117.800781 48.125 C 116.722656 47.550781 115.320312 47.449219 113.839844 47.867188 C 112.496094 48.238281 111.246094 48.960938 110.046875 49.65625 C 109.964844 49.699219 109.875 49.707031 109.800781 49.671875 C 109.71875 49.636719 109.660156 49.566406 109.640625 49.484375 C 109.109375 47.28125 106.996094 45.539062 104.734375 45.429688 C 104.65625 45.425781 104.578125 45.421875 104.503906 45.421875 C 102.324219 45.421875 100.179688 46.925781 99.457031 48.992188 C 99.40625 49.136719 99.253906 49.203125 99.109375 49.160156 C 98.964844 49.109375 98.886719 48.957031 98.941406 48.8125 C 99.734375 46.53125 102.097656 44.875 104.511719 44.875 C 104.589844 44.875 104.675781 44.878906 104.757812 44.882812 C 107.136719 44.996094 109.359375 46.742188 110.078125 49.003906 C 111.214844 48.347656 112.398438 47.695312 113.691406 47.335938 C 115.304688 46.890625 116.855469 46.996094 118.058594 47.640625 C 119.503906 48.410156 120.355469 50.015625 120.082031 51.457031 C 120.0625 51.589844 119.945312 51.679688 119.816406 51.679688 Z M 119.816406 51.679688 " fill-opacity="1" fill-rule="nonzero"/><path fill="#228600" d="M 155.578125 43.339844 C 155.511719 43.339844 155.449219 43.316406 155.394531 43.273438 C 155.28125 43.171875 155.273438 43 155.375 42.882812 C 156.992188 41.046875 159 39.089844 161.59375 38.511719 C 163.054688 38.183594 164.769531 38.496094 166.027344 39.332031 C 166.636719 39.734375 167.113281 40.226562 167.4375 40.792969 C 167.746094 39.648438 168.601562 38.597656 169.773438 38.019531 C 171.109375 37.371094 172.789062 37.277344 174.546875 37.761719 C 176.097656 38.195312 177.496094 38.984375 178.851562 39.75 C 178.984375 39.828125 179.027344 39.992188 178.957031 40.125 C 178.875 40.257812 178.710938 40.292969 178.585938 40.226562 C 177.253906 39.480469 175.886719 38.707031 174.398438 38.292969 C 172.789062 37.84375 171.226562 37.921875 170.019531 38.511719 C 168.621094 39.203125 167.742188 40.632812 167.875 41.996094 C 167.890625 42.140625 167.785156 42.273438 167.640625 42.292969 C 167.484375 42.320312 167.355469 42.214844 167.335938 42.074219 C 167.113281 40.917969 166.339844 40.195312 165.726562 39.789062 C 164.582031 39.03125 163.03125 38.75 161.714844 39.050781 C 159.273438 39.589844 157.347656 41.472656 155.78125 43.246094 C 155.726562 43.308594 155.652344 43.339844 155.578125 43.339844 Z M 155.578125 43.339844 " fill-opacity="1" fill-rule="nonzero"/><path fill="#228600" d="M 225.691406 39.03125 C 225.621094 39.03125 225.550781 39.003906 225.496094 38.953125 C 225.390625 38.84375 225.390625 38.671875 225.496094 38.5625 C 228.691406 35.390625 234.113281 34.996094 237.757812 37.601562 C 238.542969 35.855469 240.34375 34.59375 242.253906 34.492188 C 244.269531 34.371094 246.332031 35.574219 247.238281 37.414062 C 247.304688 37.550781 247.25 37.714844 247.117188 37.78125 C 246.972656 37.84375 246.816406 37.789062 246.746094 37.65625 C 245.9375 36.011719 244.082031 34.945312 242.289062 35.039062 C 240.464844 35.136719 238.757812 36.40625 238.132812 38.128906 C 238.109375 38.210938 238.039062 38.273438 237.953125 38.296875 C 237.867188 38.320312 237.785156 38.304688 237.707031 38.25 C 234.339844 35.617188 228.917969 35.933594 225.882812 38.957031 C 225.828125 39.007812 225.761719 39.03125 225.691406 39.03125 Z M 225.691406 39.03125 " fill-opacity="1" fill-rule="nonzero"/><path fill="#228600" d="M 333.539062 49.101562 C 333.496094 49.101562 333.453125 49.09375 333.410156 49.074219 C 333.273438 49 333.226562 48.835938 333.296875 48.699219 C 334.332031 46.738281 336.429688 45.371094 338.644531 45.210938 C 340.644531 45.046875 342.726562 45.925781 344.078125 47.441406 C 344.726562 45.320312 347.332031 44.175781 349.480469 44.398438 C 351.789062 44.671875 353.734375 46.058594 355.679688 47.578125 C 355.804688 47.671875 355.824219 47.84375 355.730469 47.964844 C 355.636719 48.085938 355.460938 48.097656 355.347656 48.011719 C 353.460938 46.542969 351.585938 45.203125 349.417969 44.945312 C 347.285156 44.707031 344.777344 45.929688 344.496094 48.09375 C 344.480469 48.203125 344.398438 48.296875 344.292969 48.324219 C 344.175781 48.351562 344.0625 48.308594 344.003906 48.21875 C 342.796875 46.578125 340.722656 45.636719 338.6875 45.757812 C 336.65625 45.90625 334.734375 47.160156 333.777344 48.957031 C 333.730469 49.050781 333.632812 49.101562 333.539062 49.101562 Z M 333.539062 49.101562 " fill-opacity="1" fill-rule="nonzero"/><g clip-path="url(#1aa0835d60)"><path fill="#228600" d="M 388.769531 53.640625 C 388.703125 53.640625 388.644531 53.617188 388.589844 53.574219 C 388.472656 53.476562 388.460938 53.304688 388.558594 53.1875 C 392.355469 48.695312 399.640625 47.613281 404.597656 50.765625 C 406.296875 48.960938 408.761719 47.890625 411.246094 47.890625 C 411.25 47.890625 411.253906 47.890625 411.261719 47.890625 C 413.828125 47.898438 416.378906 49.050781 418.070312 50.976562 C 418.175781 51.089844 418.164062 51.261719 418.050781 51.363281 C 417.933594 51.460938 417.761719 51.453125 417.664062 51.339844 C 416.066406 49.527344 413.671875 48.445312 411.261719 48.4375 C 411.253906 48.4375 411.25 48.4375 411.246094 48.4375 C 408.839844 48.4375 406.449219 49.511719 404.84375 51.304688 C 404.753906 51.414062 404.59375 51.421875 404.492188 51.351562 C 399.75 48.191406 392.648438 49.195312 388.976562 53.542969 C 388.921875 53.605469 388.847656 53.640625 388.769531 53.640625 Z M 388.769531 53.640625 " fill-opacity="1" fill-rule="nonzero"/></g><g clip-path="url(#b1d0635799)"><path fill="#228600" d="M 480.710938 54.210938 C 480.585938 54.210938 480.472656 54.132812 480.441406 54.007812 C 479.890625 51.878906 478.160156 50.136719 476.03125 49.570312 C 473.894531 49.007812 471.527344 49.660156 469.996094 51.234375 C 469.917969 51.3125 469.792969 51.335938 469.691406 51.292969 C 469.589844 51.25 469.519531 51.148438 469.523438 51.035156 C 469.582031 48.445312 467.1875 46.355469 464.832031 45.832031 C 462.085938 45.214844 459.171875 46.171875 457.21875 46.941406 C 457.074219 47 456.914062 46.925781 456.863281 46.789062 C 456.808594 46.648438 456.878906 46.488281 457.015625 46.433594 C 459.035156 45.636719 462.082031 44.65625 464.949219 45.296875 C 467.304688 45.824219 469.769531 47.769531 470.050781 50.433594 C 471.707031 49.023438 474.058594 48.476562 476.171875 49.042969 C 478.492188 49.65625 480.371094 51.550781 480.976562 53.871094 C 481.015625 54.015625 480.921875 54.167969 480.777344 54.203125 C 480.757812 54.210938 480.730469 54.210938 480.710938 54.210938 Z M 480.710938 54.210938 " fill-opacity="1" fill-rule="nonzero"/></g></svg>