<svg xmlns="http://www.w3.org/2000/svg" xmlns:xlink="http://www.w3.org/1999/xlink" width="1442" zoomAndPan="magnify" viewBox="0 0 1081.5 183.750001" height="245" preserveAspectRatio="xMidYMid meet" version="1.0"><defs><clipPath id="bc4588b2f1"><path d="M 4.957031 51.640625 L 1080 51.640625 L 1080 182.710938 L 4.957031 182.710938 Z M 4.957031 51.640625 " clip-rule="nonzero"/></clipPath><clipPath id="9421d292ba"><path d="M 0.484375 0 L 1079.617188 0 L 1079.617188 107.652344 L 0.484375 107.652344 Z M 0.484375 0 " clip-rule="nonzero"/></clipPath></defs><g clip-path="url(#bc4588b2f1)"><path fill="#228600" d="M 917.332031 -10.03125 L 916.835938 -9.164062 C 911.871094 -6.121094 905.203125 -4.308594 896.835938 -3.722656 C 890.417969 5.015625 885.175781 9.769531 881.109375 10.539062 C 878.761719 10.9375 874.515625 9.6875 868.378906 6.796875 C 865.425781 15.585938 862.742188 20.570312 860.324219 21.738281 C 845.078125 22.601562 827.335938 18.472656 807.097656 9.347656 L 782.71875 9.691406 C 777.972656 10.996094 768.476562 12.414062 754.222656 13.945312 L 741.847656 22.21875 C 739.535156 22.878906 736.375 22.253906 732.371094 20.347656 C 730.984375 22.128906 727.40625 24 721.640625 25.964844 L 705.699219 18.347656 L 696.988281 23.589844 L 677.859375 21.40625 L 650.953125 34.886719 L 632.910156 29.125 C 624.421875 30.621094 617.046875 30.761719 610.785156 29.546875 L 598.292969 39.109375 C 597.164062 37.832031 577.113281 42.976562 538.136719 54.539062 L 533.503906 43.644531 C 528.679688 41.578125 523.710938 42.214844 518.609375 45.546875 L 520.855469 41.148438 L 507.75 50.710938 C 505.457031 45.828125 501.609375 43.65625 496.203125 44.195312 L 487.84375 52.324219 C 477.179688 45.195312 470.71875 41.59375 468.460938 41.523438 L 467.21875 41.34375 C 465.652344 42.679688 463.03125 43.804688 459.351562 44.714844 C 455.96875 45.320312 452.554688 45.605469 449.117188 45.570312 C 441.398438 45.496094 430.539062 43.710938 416.539062 40.210938 C 412.867188 39.027344 406.582031 35.160156 397.679688 28.605469 C 371.636719 26.589844 354.285156 28.585938 345.628906 34.59375 L 314.8125 13.90625 C 313.617188 34.042969 306.371094 47.316406 293.070312 53.722656 C 261.902344 45.09375 239.734375 43.722656 226.558594 49.605469 L 204.75 43.613281 L 196.886719 51.605469 C 178.730469 47.03125 169.402344 44.960938 168.90625 45.398438 C 159.667969 53.402344 140.738281 56.921875 112.117188 55.953125 L 102.507812 55.207031 L 87.136719 41.941406 C 71.722656 50.382812 27.367188 48.074219 -45.929688 35.015625 L -45.976562 110.53125 L 18.804688 107.691406 C 30.945312 105.855469 38.210938 103.484375 40.605469 100.574219 C 69.613281 107.1875 92.140625 118.453125 108.1875 134.367188 L 149.675781 145.601562 L 160.949219 132 C 162.699219 131.503906 164.480469 131.191406 166.289062 131.058594 C 182.46875 131.265625 191.097656 131.097656 192.175781 130.554688 L 203.929688 121.613281 L 250.9375 141.945312 L 260.394531 136.804688 C 268.882812 137.304688 279.71875 135.179688 292.90625 130.4375 C 298.195312 129.6875 307.3125 130.445312 320.269531 132.710938 L 329.859375 122.425781 C 330.628906 121.734375 332.019531 121.421875 334.027344 121.480469 C 337.339844 121.480469 341.441406 123.277344 346.335938 126.867188 C 355.4375 134.378906 362.785156 141.667969 368.378906 148.734375 C 376.46875 148.417969 386.027344 149.75 397.054688 152.734375 C 417.347656 160.722656 428.25 166.144531 429.757812 169.003906 C 425.722656 165.078125 424.820312 162.304688 427.046875 160.683594 L 450.933594 174.464844 L 455.074219 170.136719 L 473.574219 177.375 L 490.566406 178.144531 L 529.765625 182.902344 C 536.738281 171.503906 542.253906 166.371094 546.308594 167.503906 C 543.957031 153.566406 543.503906 145.828125 544.941406 144.289062 L 551.242188 142.609375 C 560.429688 145.078125 566.472656 146.175781 569.375 145.890625 L 580.027344 136.09375 C 582.394531 134.71875 584.941406 133.925781 587.671875 133.71875 L 632.609375 150.125 L 652.867188 137.851562 C 657.007812 137.269531 663.316406 139.59375 671.792969 144.824219 C 675.835938 142.640625 678.574219 141.671875 680.011719 141.914062 L 709.332031 157.21875 C 710.320312 157.421875 711.316406 157.496094 712.328125 157.4375 C 716.59375 155.097656 720.367188 154.0625 723.640625 154.328125 L 753.136719 164.121094 C 755.9375 164.570312 761.039062 162.574219 768.441406 158.128906 L 793.96875 164 L 810.242188 152.765625 L 849.144531 168.632812 C 855.253906 161.675781 859.761719 157.710938 862.667969 156.734375 C 866.851562 155.707031 869.585938 155.285156 870.871094 155.46875 L 888.941406 159.550781 L 902.046875 152.8125 L 935.300781 170.628906 C 937.511719 170.96875 939.191406 170.96875 940.335938 170.628906 C 953.820312 161.664062 961.914062 157.613281 964.625 158.476562 L 993.210938 176.578125 C 994.535156 176.792969 996.355469 176.601562 998.664062 176 C 1004.25 173.171875 1010.039062 170.847656 1016.03125 169.027344 C 1020.148438 168.011719 1024.921875 167.566406 1030.347656 167.695312 L 1079.640625 181.617188 L 1079.828125 13.449219 L 1050.503906 1.648438 L 1029.472656 14.625 L 994.613281 13.035156 C 986.402344 10.351562 976.714844 6.300781 965.554688 0.882812 Z M 917.332031 -10.03125 " fill-opacity="1" fill-rule="nonzero"/></g><g clip-path="url(#9421d292ba)"><path fill="#228600" d="M 0.484375 0 L 1079.542969 0 L 1079.542969 107.652344 L 0.484375 107.652344 Z M 0.484375 0 " fill-opacity="1" fill-rule="nonzero"/></g></svg>