<svg xmlns="http://www.w3.org/2000/svg" xmlns:xlink="http://www.w3.org/1999/xlink" width="1505" zoomAndPan="magnify" viewBox="0 0 1128.75 225" height="300" preserveAspectRatio="xMidYMid meet" version="1.0"><defs><clipPath id="d0e03ae880"><path d="M 0.117188 93.367188 L 1127.75 93.367188 L 1127.75 224.585938 L 0.117188 224.585938 Z M 0.117188 93.367188 " clip-rule="nonzero"/></clipPath><clipPath id="addfa90b66"><path d="M 0 0.0234375 L 1127.75 0.0234375 L 1127.75 131.246094 L 0 131.246094 Z M 0 0.0234375 " clip-rule="nonzero"/></clipPath></defs><g clip-path="url(#d0e03ae880)"><path fill="#ff3131" d="M 163.066406 31.621094 L 163.558594 32.492188 C 168.53125 35.539062 175.207031 37.355469 183.582031 37.9375 C 190.007812 46.6875 195.257812 51.445312 199.328125 52.21875 C 201.679688 52.617188 205.929688 51.367188 212.074219 48.46875 C 215.027344 57.273438 217.714844 62.257812 220.136719 63.429688 C 235.402344 64.292969 253.164062 60.160156 273.421875 51.027344 L 297.832031 51.367188 C 302.582031 52.675781 312.089844 54.09375 326.359375 55.625 L 338.746094 63.910156 C 341.0625 64.570312 344.226562 63.945312 348.234375 62.035156 C 349.621094 63.820312 353.203125 65.695312 358.980469 67.660156 L 374.9375 60.035156 L 383.660156 65.285156 L 402.808594 63.097656 L 429.746094 76.59375 L 447.808594 70.824219 C 456.304688 72.324219 463.691406 72.464844 469.960938 71.246094 L 482.46875 80.824219 C 483.597656 79.542969 503.671875 84.691406 542.691406 96.265625 L 547.328125 85.363281 C 552.160156 83.292969 557.132812 83.925781 562.242188 87.265625 L 559.992188 82.863281 L 573.113281 92.4375 C 575.410156 87.546875 579.261719 85.371094 584.671875 85.914062 L 593.042969 94.050781 C 603.71875 86.910156 610.1875 83.304688 612.449219 83.238281 L 613.691406 83.054688 C 615.257812 84.394531 617.878906 85.519531 621.566406 86.429688 C 624.953125 87.035156 628.371094 87.324219 631.8125 87.289062 C 639.542969 87.214844 650.414062 85.425781 664.429688 81.925781 C 668.101562 80.738281 674.394531 76.867188 683.308594 70.304688 C 709.382812 68.285156 726.753906 70.285156 735.417969 76.300781 L 766.269531 55.589844 C 767.464844 75.75 774.71875 89.039062 788.035156 95.449219 C 819.238281 86.8125 841.433594 85.4375 854.625 91.328125 L 876.457031 85.328125 L 884.328125 93.332031 C 902.507812 88.75 911.847656 86.679688 912.34375 87.117188 C 921.589844 95.128906 940.542969 98.652344 969.195312 97.683594 L 978.816406 96.933594 L 994.203125 83.65625 C 1009.636719 92.105469 1054.042969 89.792969 1127.421875 76.722656 L 1127.46875 152.324219 L 1062.613281 149.480469 C 1050.460938 147.640625 1043.183594 145.265625 1040.792969 142.355469 C 1011.746094 148.976562 989.195312 160.253906 973.132812 176.1875 L 931.59375 187.433594 L 920.308594 173.816406 C 918.558594 173.320312 916.773438 173.007812 914.960938 172.875 C 898.765625 173.082031 890.128906 172.914062 889.046875 172.371094 L 877.277344 163.417969 L 830.21875 183.773438 L 820.75 178.625 C 812.25 179.125 801.402344 177 788.199219 172.253906 C 782.90625 171.503906 773.777344 172.261719 760.808594 174.527344 L 751.207031 164.230469 C 750.433594 163.539062 749.042969 163.226562 747.035156 163.285156 C 743.71875 163.285156 739.609375 165.082031 734.710938 168.675781 C 725.601562 176.195312 718.242188 183.496094 712.644531 190.570312 C 704.542969 190.253906 694.972656 191.585938 683.933594 194.574219 C 663.617188 202.570312 652.707031 208 651.195312 210.863281 C 655.230469 206.929688 656.136719 204.15625 653.910156 202.53125 L 629.992188 216.332031 L 625.851562 212 L 607.328125 219.246094 L 590.3125 220.011719 L 551.070312 224.777344 C 544.089844 213.367188 538.570312 208.226562 534.507812 209.363281 C 536.863281 195.410156 537.320312 187.660156 535.878906 186.121094 L 529.570312 184.4375 C 520.375 186.910156 514.324219 188.007812 511.414062 187.722656 L 500.753906 177.914062 C 498.382812 176.539062 495.832031 175.746094 493.097656 175.535156 L 448.113281 191.964844 L 427.832031 179.675781 C 423.683594 179.089844 417.367188 181.417969 408.882812 186.65625 C 404.835938 184.46875 402.09375 183.5 400.65625 183.742188 L 371.300781 199.066406 C 370.3125 199.269531 369.3125 199.34375 368.304688 199.28125 C 364.03125 196.941406 360.253906 195.902344 356.972656 196.171875 L 327.449219 205.972656 C 324.640625 206.421875 319.535156 204.425781 312.125 199.976562 L 286.566406 205.855469 L 270.273438 194.605469 L 231.328125 210.492188 C 225.210938 203.527344 220.699219 199.554688 217.789062 198.582031 C 213.601562 197.550781 210.863281 197.128906 209.578125 197.3125 L 191.488281 201.398438 L 178.367188 194.652344 L 145.074219 212.488281 C 142.859375 212.832031 141.179688 212.832031 140.03125 212.488281 C 126.535156 203.515625 118.429688 199.460938 115.71875 200.324219 L 87.097656 218.445312 C 85.769531 218.660156 83.953125 218.46875 81.640625 217.863281 C 76.046875 215.035156 70.25 212.710938 64.253906 210.886719 C 60.128906 209.867188 55.351562 209.425781 49.921875 209.554688 L 0.570312 223.492188 L 0.382812 55.132812 L 29.742188 43.320312 L 50.792969 56.308594 L 85.695312 54.714844 C 93.917969 52.03125 103.613281 47.976562 114.789062 42.550781 Z M 163.066406 31.621094 " fill-opacity="1" fill-rule="nonzero"/></g><g clip-path="url(#addfa90b66)"><path fill="#ff3131" d="M 964.800781 193.164062 L 964.308594 192.296875 C 959.335938 189.25 952.660156 187.433594 944.285156 186.847656 C 937.859375 178.101562 932.609375 173.339844 928.539062 172.570312 C 926.1875 172.171875 921.9375 173.421875 915.792969 176.320312 C 912.839844 167.515625 910.152344 162.527344 907.730469 161.355469 C 892.464844 160.496094 874.703125 164.628906 854.445312 173.761719 L 830.035156 173.421875 C 825.285156 172.113281 815.777344 170.695312 801.507812 169.160156 L 789.121094 160.875 C 786.804688 160.21875 783.640625 160.84375 779.632812 162.75 C 778.246094 160.964844 774.664062 159.09375 768.886719 157.128906 L 752.929688 164.753906 L 744.207031 159.503906 L 725.058594 161.691406 L 698.121094 148.195312 L 680.058594 153.964844 C 671.5625 152.464844 664.175781 152.324219 657.90625 153.539062 L 645.398438 143.964844 C 644.269531 145.246094 624.195312 140.097656 585.175781 128.519531 L 580.539062 139.425781 C 575.707031 141.496094 570.734375 140.859375 565.625 137.519531 L 567.875 141.925781 L 554.753906 132.351562 C 552.457031 137.242188 548.605469 139.417969 543.195312 138.875 L 534.824219 130.734375 C 524.148438 137.875 517.679688 141.480469 515.417969 141.550781 L 514.175781 141.730469 C 512.609375 140.390625 509.988281 139.265625 506.300781 138.359375 C 502.914062 137.75 499.496094 137.464844 496.054688 137.5 C 488.324219 137.574219 477.453125 139.363281 463.4375 142.863281 C 459.765625 144.046875 453.472656 147.921875 444.558594 154.484375 C 418.484375 156.5 401.113281 154.503906 392.449219 148.488281 L 361.597656 169.199219 C 360.402344 149.039062 353.148438 135.75 339.832031 129.335938 C 308.628906 137.976562 286.433594 139.351562 273.242188 133.460938 L 251.410156 139.460938 L 243.539062 131.457031 C 225.359375 136.035156 216.019531 138.109375 215.523438 137.671875 C 206.277344 129.660156 187.324219 126.136719 158.671875 127.101562 L 149.050781 127.851562 L 133.664062 141.132812 C 118.230469 132.683594 73.824219 134.992188 0.445312 148.066406 L 0.398438 72.464844 L 65.253906 75.308594 C 77.40625 77.144531 84.683594 79.519531 87.074219 82.433594 C 116.121094 75.8125 138.671875 64.535156 154.734375 48.601562 L 196.273438 37.355469 L 207.558594 50.972656 C 209.308594 51.46875 211.09375 51.78125 212.90625 51.914062 C 229.101562 51.707031 237.738281 51.875 238.820312 52.417969 L 250.589844 61.371094 L 297.648438 41.015625 L 307.117188 46.160156 C 315.617188 45.664062 326.464844 47.785156 339.667969 52.535156 C 344.960938 53.285156 354.089844 52.527344 367.058594 50.257812 L 376.660156 60.558594 C 377.433594 61.246094 378.824219 61.5625 380.832031 61.503906 C 384.148438 61.503906 388.257812 59.707031 393.15625 56.113281 C 402.265625 48.589844 409.625 41.292969 415.222656 34.21875 C 423.324219 34.535156 432.894531 33.199219 443.933594 30.214844 C 464.25 22.21875 475.164062 16.789062 476.671875 13.925781 C 472.636719 17.855469 471.730469 20.632812 473.957031 22.253906 L 497.875 8.457031 L 502.019531 12.789062 L 520.539062 5.542969 L 537.554688 4.773438 L 576.796875 0.0117188 C 583.777344 11.421875 589.296875 16.558594 593.359375 15.425781 C 591.003906 29.378906 590.546875 37.125 591.988281 38.667969 L 598.296875 40.351562 C 607.492188 37.878906 613.542969 36.78125 616.453125 37.0625 L 627.113281 46.875 C 629.484375 48.25 632.035156 49.042969 634.769531 49.25 L 679.753906 32.824219 L 700.035156 45.113281 C 704.183594 45.695312 710.5 43.371094 718.984375 38.132812 C 723.03125 40.320312 725.773438 41.289062 727.210938 41.042969 L 756.566406 25.722656 C 757.554688 25.519531 758.554688 25.445312 759.5625 25.503906 C 763.835938 27.847656 767.613281 28.886719 770.894531 28.617188 L 800.417969 18.8125 C 803.226562 18.363281 808.332031 20.363281 815.742188 24.8125 L 841.300781 18.933594 L 857.59375 30.179688 L 896.539062 14.296875 C 902.65625 21.261719 907.167969 25.230469 910.078125 26.207031 C 914.265625 27.238281 917.003906 27.660156 918.289062 27.472656 L 936.378906 23.386719 L 949.5 30.136719 L 982.792969 12.296875 C 985.007812 11.957031 986.6875 11.957031 987.835938 12.296875 C 1001.332031 21.273438 1009.4375 25.328125 1012.148438 24.464844 L 1040.769531 6.339844 C 1042.097656 6.125 1043.914062 6.320312 1046.226562 6.921875 C 1051.820312 9.75 1057.617188 12.078125 1063.613281 13.902344 C 1067.738281 14.921875 1072.515625 15.363281 1077.945312 15.234375 L 1127.296875 1.296875 L 1127.484375 169.65625 L 1098.125 181.46875 L 1077.074219 168.480469 L 1042.171875 170.074219 C 1033.949219 172.757812 1024.253906 176.8125 1013.078125 182.238281 Z M 964.800781 193.164062 " fill-opacity="1" fill-rule="nonzero"/></g></svg>